ISO-10303-21;
HEADER;
FILE_DESCRIPTION (( 'STEP AP214' ),
    '1' );
FILE_NAME ('lightbox_cover.STEP',
    '2025-01-05T15:11:56',
    ( '' ),
    ( '' ),
    'SwSTEP 2.0',
    'SolidWorks 2024',
    '' );
FILE_SCHEMA (( 'AUTOMOTIVE_DESIGN' ));
ENDSEC;

DATA;
#1 = ORIENTED_EDGE ( 'NONE', *, *, #1117, .F. ) ;
#2 = DIRECTION ( 'NONE',  ( 1.000000000000000000, 0.000000000000000000, 0.000000000000000000 ) ) ;
#3 = FACE_OUTER_BOUND ( 'NONE', #1334, .T. ) ;
#4 = DIRECTION ( 'NONE',  ( -0.000000000000000000, -0.000000000000000000, -1.000000000000000000 ) ) ;
#5 = AXIS2_PLACEMENT_3D ( 'NONE', #25, #1191, #888 ) ;
#6 = EDGE_LOOP ( 'NONE', ( #857, #1111, #537, #1142 ) ) ;
#7 = DIRECTION ( 'NONE',  ( 1.000000000000000000, -1.734723475976946920E-15, 0.000000000000000000 ) ) ;
#8 = ORIENTED_EDGE ( 'NONE', *, *, #1073, .F. ) ;
#9 = ORIENTED_EDGE ( 'NONE', *, *, #636, .T. ) ;
#10 = CIRCLE ( 'NONE', #670, 8.000000000000284217 ) ;
#11 = PLANE ( 'NONE',  #885 ) ;
#12 = CARTESIAN_POINT ( 'NONE',  ( -21.99999999999978328, -21.99999999999992539, 14.87499999999996803 ) ) ;
#13 = CYLINDRICAL_SURFACE ( 'NONE', #821, 4.800000000000252065 ) ;
#14 = CARTESIAN_POINT ( 'NONE',  ( 21.99999999999990408, -21.99999999999999645, 6.374999999999976019 ) ) ;
#15 = EDGE_LOOP ( 'NONE', ( #383, #487, #313, #917 ) ) ;
#16 = ORIENTED_EDGE ( 'NONE', *, *, #1117, .T. ) ;
#17 = LINE ( 'NONE', #120, #1293 ) ;
#18 = DIRECTION ( 'NONE',  ( 1.000000000000000000, 0.000000000000000000, -0.000000000000000000 ) ) ;
#19 = VECTOR ( 'NONE', #486, 1000.000000000000000 ) ;
#20 = DIRECTION ( 'NONE',  ( 1.000000000000000000, 0.000000000000000000, 0.000000000000000000 ) ) ;
#21 = DIRECTION ( 'NONE',  ( 1.000000000000000000, 0.000000000000000000, 0.000000000000000000 ) ) ;
#22 = EDGE_CURVE ( 'NONE', #473, #1016, #173, .T. ) ;
#23 = ORIENTED_EDGE ( 'NONE', *, *, #393, .F. ) ;
#24 = CARTESIAN_POINT ( 'NONE',  ( -26.80000000000006111, 21.99999999999969091, 15.87499999999997868 ) ) ;
#25 = CARTESIAN_POINT ( 'NONE',  ( -21.99999999999978328, -21.99999999999992539, 6.374999999999976019 ) ) ;
#26 = VECTOR ( 'NONE', #1119, 1000.000000000000000 ) ;
#27 = CARTESIAN_POINT ( 'NONE',  ( 21.99999999999984723, -26.80000000000010019, 14.87499999999996803 ) ) ;
#28 = DIRECTION ( 'NONE',  ( -1.000000000000000000, -0.000000000000000000, -0.000000000000000000 ) ) ;
#29 = VECTOR ( 'NONE', #388, 1000.000000000000000 ) ;
#30 = DIRECTION ( 'NONE',  ( -1.000000000000000000, 0.000000000000000000, 0.000000000000000000 ) ) ;
#31 = CYLINDRICAL_SURFACE ( 'NONE', #385, 8.000000000000266454 ) ;
#32 = ORIENTED_EDGE ( 'NONE', *, *, #1079, .F. ) ;
#33 = ADVANCED_FACE ( 'NONE', ( #631 ), #1272, .F. ) ;
#34 = DIRECTION ( 'NONE',  ( 1.000000000000000000, 0.000000000000000000, 0.000000000000000000 ) ) ;
#35 = AXIS2_PLACEMENT_3D ( 'NONE', #380, #1103, #777 ) ;
#36 = DIRECTION ( 'NONE',  ( -1.000000000000000000, 0.000000000000000000, 0.000000000000000000 ) ) ;
#37 = EDGE_CURVE ( 'NONE', #249, #331, #296, .T. ) ;
#38 = ORIENTED_EDGE ( 'NONE', *, *, #1331, .F. ) ;
#39 = ADVANCED_FACE ( 'NONE', ( #1160 ), #605, .F. ) ;
#40 = ADVANCED_FACE ( 'NONE', ( #398 ), #826, .F. ) ;
#41 = LINE ( 'NONE', #1012, #86 ) ;
#42 = DIRECTION ( 'NONE',  ( -0.000000000000000000, -0.000000000000000000, -1.000000000000000000 ) ) ;
#43 = CARTESIAN_POINT ( 'NONE',  ( -21.99999999999978328, 21.99999999999995026, 14.87499999999996803 ) ) ;
#44 = VECTOR ( 'NONE', #667, 1000.000000000000000 ) ;
#45 = ORIENTED_EDGE ( 'NONE', *, *, #368, .T. ) ;
#46 = AXIS2_PLACEMENT_3D ( 'NONE', #869, #658, #665 ) ;
#47 = PLANE ( 'NONE',  #453 ) ;
#48 = CIRCLE ( 'NONE', #157, 4.000000000000239808 ) ;
#49 = DIRECTION ( 'NONE',  ( -0.000000000000000000, -0.000000000000000000, -1.000000000000000000 ) ) ;
#50 = CARTESIAN_POINT ( 'NONE',  ( 21.99999999999980460, -21.99999999999992539, 15.87499999999997868 ) ) ;
#51 = CARTESIAN_POINT ( 'NONE',  ( -26.00000000000002132, -21.99999999999992539, 6.374999999999976019 ) ) ;
#52 = VERTEX_POINT ( 'NONE', #1213 ) ;
#53 = FACE_OUTER_BOUND ( 'NONE', #1234, .T. ) ;
#54 = DIRECTION ( 'NONE',  ( -0.000000000000000000, -0.000000000000000000, -1.000000000000000000 ) ) ;
#55 = DIRECTION ( 'NONE',  ( 1.000000000000000000, 0.000000000000000000, 0.000000000000000000 ) ) ;
#56 = CARTESIAN_POINT ( 'NONE',  ( -20.00000000000000000, 26.80000000000017479, 15.87499999999997868 ) ) ;
#57 = ORIENTED_EDGE ( 'NONE', *, *, #330, .F. ) ;
#58 = EDGE_CURVE ( 'NONE', #1195, #188, #661, .T. ) ;
#59 = CARTESIAN_POINT ( 'NONE',  ( 22.50000000000000711, -26.77388730491214019, 6.374999999999976019 ) ) ;
#60 = DIRECTION ( 'NONE',  ( -0.000000000000000000, -0.000000000000000000, -1.000000000000000000 ) ) ;
#61 = CARTESIAN_POINT ( 'NONE',  ( -20.00000000000000000, 26.00000000000017764, 6.374999999999976019 ) ) ;
#62 = DIRECTION ( 'NONE',  ( 1.000000000000000000, -7.264154555652892330E-14, -0.000000000000000000 ) ) ;
#63 = VERTEX_POINT ( 'NONE', #456 ) ;
#64 = VECTOR ( 'NONE', #627, 1000.000000000000000 ) ;
#65 = DIRECTION ( 'NONE',  ( -0.000000000000000000, -0.000000000000000000, -1.000000000000000000 ) ) ;
#66 = DIRECTION ( 'NONE',  ( -0.000000000000000000, -1.000000000000000000, -0.000000000000000000 ) ) ;
#67 = VECTOR ( 'NONE', #889, 1000.000000000000000 ) ;
#68 = LINE ( 'NONE', #1133, #251 ) ;
#69 = ORIENTED_EDGE ( 'NONE', *, *, #351, .F. ) ;
#70 = EDGE_CURVE ( 'NONE', #360, #194, #1093, .T. ) ;
#71 = ORIENTED_EDGE ( 'NONE', *, *, #1227, .F. ) ;
#72 = VECTOR ( 'NONE', #166, 1000.000000000000000 ) ;
#73 = ORIENTED_EDGE ( 'NONE', *, *, #957, .F. ) ;
#74 = CARTESIAN_POINT ( 'NONE',  ( -21.99999999999978684, 21.99999999999992184, 6.374999999999976019 ) ) ;
#75 = CARTESIAN_POINT ( 'NONE',  ( 21.99999999999985079, -26.80000000000014637, 15.87499999999997868 ) ) ;
#76 = FACE_OUTER_BOUND ( 'NONE', #924, .T. ) ;
#77 = VERTEX_POINT ( 'NONE', #212 ) ;
#78 = ORIENTED_EDGE ( 'NONE', *, *, #460, .F. ) ;
#79 = EDGE_CURVE ( 'NONE', #304, #941, #647, .T. ) ;
#80 = ADVANCED_FACE ( 'NONE', ( #558 ), #664, .F. ) ;
#81 = CARTESIAN_POINT ( 'NONE',  ( 21.99999999999984013, -26.00000000000014921, 6.374999999999976019 ) ) ;
#82 = CARTESIAN_POINT ( 'NONE',  ( 26.80000000000000426, 21.99999999999996092, 15.87499999999997868 ) ) ;
#83 = DIRECTION ( 'NONE',  ( -0.000000000000000000, -0.000000000000000000, -1.000000000000000000 ) ) ;
#84 = ORIENTED_EDGE ( 'NONE', *, *, #785, .F. ) ;
#85 = ORIENTED_EDGE ( 'NONE', *, *, #1038, .T. ) ;
#86 = VECTOR ( 'NONE', #1221, 1000.000000000000000 ) ;
#87 = CARTESIAN_POINT ( 'NONE',  ( 30.00000000000008882, -21.99999999999992539, 15.87499999999997868 ) ) ;
#88 = FACE_OUTER_BOUND ( 'NONE', #6, .T. ) ;
#89 = PLANE ( 'NONE',  #1144 ) ;
#90 = AXIS2_PLACEMENT_3D ( 'NONE', #1323, #681, #143 ) ;
#91 = VERTEX_POINT ( 'NONE', #27 ) ;
#92 = ORIENTED_EDGE ( 'NONE', *, *, #161, .F. ) ;
#93 = VECTOR ( 'NONE', #1025, 1000.000000000000000 ) ;
#94 = CIRCLE ( 'NONE', #567, 4.800000000000276046 ) ;
#95 = ORIENTED_EDGE ( 'NONE', *, *, #1355, .F. ) ;
#96 = PLANE ( 'NONE',  #860 ) ;
#97 = LINE ( 'NONE', #406, #1379 ) ;
#98 = CARTESIAN_POINT ( 'NONE',  ( -30.00000000000004974, -21.99999999999992539, 15.87499999999997868 ) ) ;
#99 = EDGE_CURVE ( 'NONE', #584, #249, #431, .T. ) ;
#100 = ORIENTED_EDGE ( 'NONE', *, *, #660, .F. ) ;
#101 = LINE ( 'NONE', #982, #768 ) ;
#102 = ADVANCED_FACE ( 'NONE', ( #884 ), #1317, .F. ) ;
#103 = AXIS2_PLACEMENT_3D ( 'NONE', #876, #882, #349 ) ;
#104 = ORIENTED_EDGE ( 'NONE', *, *, #285, .T. ) ;
#105 = CARTESIAN_POINT ( 'NONE',  ( 22.50000000000000355, -26.80000000000010019, 5.300000000000002487 ) ) ;
#106 = FACE_OUTER_BOUND ( 'NONE', #1162, .T. ) ;
#107 = CARTESIAN_POINT ( 'NONE',  ( 8.500000000000000000, -26.00000000000015277, 2.499999999999998224 ) ) ;
#108 = ORIENTED_EDGE ( 'NONE', *, *, #336, .F. ) ;
#109 = DIRECTION ( 'NONE',  ( 1.000000000000000000, 0.000000000000000000, 0.000000000000000000 ) ) ;
#110 = VERTEX_POINT ( 'NONE', #1297 ) ;
#111 = ORIENTED_EDGE ( 'NONE', *, *, #139, .F. ) ;
#112 = FACE_OUTER_BOUND ( 'NONE', #468, .T. ) ;
#113 = CARTESIAN_POINT ( 'NONE',  ( 21.99999999999980460, -21.99999999999992539, 14.87499999999996803 ) ) ;
#114 = FACE_OUTER_BOUND ( 'NONE', #1318, .T. ) ;
#115 = DIRECTION ( 'NONE',  ( -0.000000000000000000, -0.000000000000000000, -1.000000000000000000 ) ) ;
#116 = ADVANCED_FACE ( 'NONE', ( #1098 ), #989, .T. ) ;
#117 = ORIENTED_EDGE ( 'NONE', *, *, #339, .T. ) ;
#118 = ORIENTED_EDGE ( 'NONE', *, *, #1192, .T. ) ;
#119 = AXIS2_PLACEMENT_3D ( 'NONE', #1014, #569, #1237 ) ;
#120 = CARTESIAN_POINT ( 'NONE',  ( -30.00000000000004974, -21.99999999999992539, 15.87499999999997868 ) ) ;
#121 = DIRECTION ( 'NONE',  ( 7.589415207398545238E-15, 1.000000000000000000, 0.000000000000000000 ) ) ;
#122 = LINE ( 'NONE', #563, #44 ) ;
#123 = EDGE_CURVE ( 'NONE', #443, #425, #1245, .T. ) ;
#124 = DIRECTION ( 'NONE',  ( 1.000000000000000000, 0.000000000000000000, 0.000000000000000000 ) ) ;
#125 = VERTEX_POINT ( 'NONE', #547 ) ;
#126 = CARTESIAN_POINT ( 'NONE',  ( 30.00000000000009592, 21.99999999999992184, 15.87499999999997868 ) ) ;
#127 = VECTOR ( 'NONE', #1173, 1000.000000000000000 ) ;
#128 = FACE_OUTER_BOUND ( 'NONE', #818, .T. ) ;
#129 = DIRECTION ( 'NONE',  ( -0.000000000000000000, -0.000000000000000000, -1.000000000000000000 ) ) ;
#130 = FACE_OUTER_BOUND ( 'NONE', #834, .T. ) ;
#131 = CARTESIAN_POINT ( 'NONE',  ( 26.80000000000005400, -21.99999999999992539, 15.87499999999997868 ) ) ;
#132 = VECTOR ( 'NONE', #307, 1000.000000000000000 ) ;
#133 = CARTESIAN_POINT ( 'NONE',  ( -21.99999999999978328, -21.99999999999992539, 15.87499999999997868 ) ) ;
#134 = AXIS2_PLACEMENT_3D ( 'NONE', #651, #535, #967 ) ;
#135 = CLOSED_SHELL ( 'NONE', ( #40, #954, #198, #937, #933, #39, #910, #674, #218, #324, #1146, #1376, #1330, #1289, #33, #411, #102, #511, #80, #1294, #308, #1400, #671, #972, #1313, #1326, #494, #222, #1088, #1220, #893, #781, #141, #979, #1328, #637, #434, #848, #1212, #283, #254, #825, #935, #116 ) ) ;
#136 = VECTOR ( 'NONE', #269, 1000.000000000000000 ) ;
#137 = CARTESIAN_POINT ( 'NONE',  ( -30.00000000000005329, 21.99999999999992184, 15.87499999999997868 ) ) ;
#138 = EDGE_CURVE ( 'NONE', #295, #1261, #101, .T. ) ;
#139 = EDGE_CURVE ( 'NONE', #418, #405, #1267, .T. ) ;
#140 = DIRECTION ( 'NONE',  ( -0.000000000000000000, -0.000000000000000000, -1.000000000000000000 ) ) ;
#141 = ADVANCED_FACE ( 'NONE', ( #964 ), #748, .F. ) ;
#142 = ORIENTED_EDGE ( 'NONE', *, *, #1250, .T. ) ;
#143 = DIRECTION ( 'NONE',  ( 1.000000000000000000, 0.000000000000000000, 0.000000000000000000 ) ) ;
#144 = CARTESIAN_POINT ( 'NONE',  ( -21.99999999999978328, -30.00000000000019185, 14.87499999999996803 ) ) ;
#145 = CARTESIAN_POINT ( 'NONE',  ( -20.00000000000000000, 26.00000000000017764, 6.374999999999976019 ) ) ;
#146 = ORIENTED_EDGE ( 'NONE', *, *, #183, .F. ) ;
#147 = SURFACE_STYLE_USAGE ( .BOTH. , #1005 ) ;
#148 = CARTESIAN_POINT ( 'NONE',  ( -21.99999999999978684, 26.00000000000017764, 15.87499999999997868 ) ) ;
#149 = LINE ( 'NONE', #471, #67 ) ;
#150 = DIRECTION ( 'NONE',  ( 1.000000000000000000, 0.000000000000000000, -0.000000000000000000 ) ) ;
#151 = ORIENTED_EDGE ( 'NONE', *, *, #540, .T. ) ;
#152 = PRESENTATION_LAYER_ASSIGNMENT (  '', '', ( #1174 ) ) ;
#153 = ORIENTED_EDGE ( 'NONE', *, *, #721, .T. ) ;
#154 = EDGE_CURVE ( 'NONE', #256, #873, #548, .T. ) ;
#155 = VECTOR ( 'NONE', #316, 1000.000000000000000 ) ;
#156 = CARTESIAN_POINT ( 'NONE',  ( -30.00000000000004974, -21.99999999999992539, 14.87499999999996803 ) ) ;
#157 = AXIS2_PLACEMENT_3D ( 'NONE', #998, #42, #899 ) ;
#158 = VECTOR ( 'NONE', #276, 1000.000000000000000 ) ;
#159 = DIRECTION ( 'NONE',  ( -0.000000000000000000, -0.000000000000000000, -1.000000000000000000 ) ) ;
#160 = CARTESIAN_POINT ( 'NONE',  ( -26.00000000000004263, 21.99999999999992184, 6.374999999999976019 ) ) ;
#161 = EDGE_CURVE ( 'NONE', #706, #1008, #409, .T. ) ;
#162 = DIRECTION ( 'NONE',  ( -1.000000000000000000, -0.000000000000000000, -0.000000000000000000 ) ) ;
#163 = ORIENTED_EDGE ( 'NONE', *, *, #1229, .T. ) ;
#164 = FACE_OUTER_BOUND ( 'NONE', #274, .T. ) ;
#165 = CARTESIAN_POINT ( 'NONE',  ( -26.80000000000003624, 21.99999999999969091, 15.87499999999997868 ) ) ;
#166 = DIRECTION ( 'NONE',  ( -1.000000000000000000, 0.000000000000000000, 0.000000000000000000 ) ) ;
#167 = CYLINDRICAL_SURFACE ( 'NONE', #1182, 4.000000000000103917 ) ;
#168 = ORIENTED_EDGE ( 'NONE', *, *, #1355, .T. ) ;
#169 = ORIENTED_EDGE ( 'NONE', *, *, #475, .F. ) ;
#170 = CARTESIAN_POINT ( 'NONE',  ( -21.99999999999981171, 26.80000000000017479, 15.87499999999997868 ) ) ;
#171 = CARTESIAN_POINT ( 'NONE',  ( -21.99999999999978328, -26.00000000000016342, 15.87499999999997868 ) ) ;
#172 = DIRECTION ( 'NONE',  ( -2.050127744336231981E-15, 1.000000000000000000, 0.000000000000000000 ) ) ;
#173 = LINE ( 'NONE', #835, #996 ) ;
#174 = AXIS2_PLACEMENT_3D ( 'NONE', #673, #384, #1112 ) ;
#175 = PRODUCT_DEFINITION_FORMATION_WITH_SPECIFIED_SOURCE ( 'ANY', '', #773, .NOT_KNOWN. ) ;
#176 = DIRECTION ( 'NONE',  ( -0.000000000000000000, -0.000000000000000000, -1.000000000000000000 ) ) ;
#177 = EDGE_CURVE ( 'NONE', #1094, #194, #1399, .T. ) ;
#178 = CARTESIAN_POINT ( 'NONE',  ( -21.99999999999978328, -26.80000000000013571, 15.87499999999997868 ) ) ;
#179 = DIRECTION ( 'NONE',  ( 1.000000000000000000, 0.000000000000000000, -0.000000000000000000 ) ) ;
#180 = ORIENTED_EDGE ( 'NONE', *, *, #1371, .T. ) ;
#181 = EDGE_CURVE ( 'NONE', #1352, #1391, #1284, .T. ) ;
#182 = ORIENTED_EDGE ( 'NONE', *, *, #1032, .T. ) ;
#183 = EDGE_CURVE ( 'NONE', #732, #706, #1184, .T. ) ;
#184 = ORIENTED_EDGE ( 'NONE', *, *, #760, .F. ) ;
#185 = CARTESIAN_POINT ( 'NONE',  ( -21.99999999999978684, 30.00000000000022027, 15.87499999999997868 ) ) ;
#186 = FACE_OUTER_BOUND ( 'NONE', #1068, .T. ) ;
#187 = EDGE_LOOP ( 'NONE', ( #1286, #57, #451, #523 ) ) ;
#188 = VERTEX_POINT ( 'NONE', #1310 ) ;
#189 = AXIS2_PLACEMENT_3D ( 'NONE', #612, #1065, #1158 ) ;
#190 = ORIENTED_EDGE ( 'NONE', *, *, #1192, .F. ) ;
#191 = CARTESIAN_POINT ( 'NONE',  ( -21.99999999999978328, -21.99999999999992539, 14.87499999999996803 ) ) ;
#192 = LINE ( 'NONE', #1042, #132 ) ;
#193 = CARTESIAN_POINT ( 'NONE',  ( 21.99999999999990408, -21.99999999999999645, 6.374999999999976019 ) ) ;
#194 = VERTEX_POINT ( 'NONE', #640 ) ;
#195 = VERTEX_POINT ( 'NONE', #160 ) ;
#196 = ORIENTED_EDGE ( 'NONE', *, *, #1250, .F. ) ;
#197 = VERTEX_POINT ( 'NONE', #463 ) ;
#198 = ADVANCED_FACE ( 'NONE', ( #668 ), #260, .T. ) ;
#199 = CARTESIAN_POINT ( 'NONE',  ( -21.99999999999978328, -21.99999999999992539, 15.87499999999997868 ) ) ;
#200 = DIRECTION ( 'NONE',  ( 1.000000000000000000, 0.000000000000000000, 0.000000000000000000 ) ) ;
#201 = CARTESIAN_POINT ( 'NONE',  ( 26.00000000000001776, 21.99999999999996447, 15.87499999999997868 ) ) ;
#202 =( GEOMETRIC_REPRESENTATION_CONTEXT ( 3 ) GLOBAL_UNCERTAINTY_ASSIGNED_CONTEXT ( ( #677 ) ) GLOBAL_UNIT_ASSIGNED_CONTEXT ( ( #1137, #265, #782 ) ) REPRESENTATION_CONTEXT ( 'NONE', 'WORKASPACE' ) );
#203 = ORIENTED_EDGE ( 'NONE', *, *, #828, .F. ) ;
#204 = EDGE_CURVE ( 'NONE', #865, #302, #10, .T. ) ;
#205 = ORIENTED_EDGE ( 'NONE', *, *, #1290, .T. ) ;
#206 = VECTOR ( 'NONE', #920, 1000.000000000000000 ) ;
#207 = ORIENTED_EDGE ( 'NONE', *, *, #740, .F. ) ;
#208 = DIRECTION ( 'NONE',  ( -1.000000000000000000, 1.734723475976946920E-15, 0.000000000000000000 ) ) ;
#209 = DIRECTION ( 'NONE',  ( 0.000000000000000000, 1.000000000000000000, 0.000000000000000000 ) ) ;
#210 = CARTESIAN_POINT ( 'NONE',  ( -21.99999999999978328, -26.80000000000013571, 15.87499999999997868 ) ) ;
#211 = ORIENTED_EDGE ( 'NONE', *, *, #702, .F. ) ;
#212 = CARTESIAN_POINT ( 'NONE',  ( -26.80000000000003624, 21.99999999999969091, 15.87499999999997868 ) ) ;
#213 = AXIS2_PLACEMENT_3D ( 'NONE', #1295, #448, #1001 ) ;
#214 = ORIENTED_EDGE ( 'NONE', *, *, #1010, .F. ) ;
#215 = LINE ( 'NONE', #949, #1061 ) ;
#216 = FACE_OUTER_BOUND ( 'NONE', #623, .T. ) ;
#217 = LINE ( 'NONE', #170, #342 ) ;
#218 = ADVANCED_FACE ( 'NONE', ( #364 ), #1244, .F. ) ;
#219 = CARTESIAN_POINT ( 'NONE',  ( 8.500000000000000000, -26.80000000000010019, 5.300000000000002487 ) ) ;
#220 = ORIENTED_EDGE ( 'NONE', *, *, #1056, .F. ) ;
#221 = EDGE_LOOP ( 'NONE', ( #1248, #1178, #947, #153 ) ) ;
#222 = ADVANCED_FACE ( 'NONE', ( #791 ), #31, .T. ) ;
#223 = FACE_OUTER_BOUND ( 'NONE', #1225, .T. ) ;
#224 = CARTESIAN_POINT ( 'NONE',  ( 20.00000000000000000, 26.80000000000012506, 6.374999999999976019 ) ) ;
#225 = AXIS2_PLACEMENT_3D ( 'NONE', #904, #592, #1145 ) ;
#226 = DIRECTION ( 'NONE',  ( -0.000000000000000000, -0.000000000000000000, -1.000000000000000000 ) ) ;
#227 = EDGE_CURVE ( 'NONE', #808, #863, #655, .T. ) ;
#228 = CARTESIAN_POINT ( 'NONE',  ( -26.00000000000002132, -21.99999999999992539, 15.87499999999997868 ) ) ;
#229 = VECTOR ( 'NONE', #129, 1000.000000000000000 ) ;
#230 = PLANE ( 'NONE',  #46 ) ;
#231 = SURFACE_STYLE_FILL_AREA ( #765 ) ;
#232 = DIRECTION ( 'NONE',  ( -0.000000000000000000, -0.000000000000000000, -1.000000000000000000 ) ) ;
#233 = EDGE_LOOP ( 'NONE', ( #632, #419, #464, #8 ) ) ;
#234 = DIRECTION ( 'NONE',  ( -1.000000000000000000, 7.264154555652893592E-14, 0.000000000000000000 ) ) ;
#235 = PLANE ( 'NONE',  #103 ) ;
#236 = CARTESIAN_POINT ( 'NONE',  ( -26.79999999999999716, -21.99999999999992539, 15.87499999999997868 ) ) ;
#237 = ORIENTED_EDGE ( 'NONE', *, *, #867, .F. ) ;
#238 = PLANE ( 'NONE',  #741 ) ;
#239 = EDGE_CURVE ( 'NONE', #1067, #52, #372, .T. ) ;
#240 = PLANE ( 'NONE',  #919 ) ;
#241 = AXIS2_PLACEMENT_3D ( 'NONE', #74, #421, #519 ) ;
#242 = CARTESIAN_POINT ( 'NONE',  ( 21.99999999999984013, 26.00000000000014211, 15.87499999999997868 ) ) ;
#243 = ORIENTED_EDGE ( 'NONE', *, *, #1263, .T. ) ;
#244 = AXIS2_PLACEMENT_3D ( 'NONE', #871, #1207, #855 ) ;
#245 = VECTOR ( 'NONE', #396, 1000.000000000000000 ) ;
#246 = CARTESIAN_POINT ( 'NONE',  ( -21.99999999999978328, -26.80000000000013571, 15.87499999999997868 ) ) ;
#247 = PLANE ( 'NONE',  #1091 ) ;
#248 = CARTESIAN_POINT ( 'NONE',  ( 22.50000000000000711, -26.77388730491214019, 15.87499999999997868 ) ) ;
#249 = VERTEX_POINT ( 'NONE', #270 ) ;
#250 = CARTESIAN_POINT ( 'NONE',  ( -26.80000000000003624, 21.99999999999969091, 6.374999999999976019 ) ) ;
#251 = VECTOR ( 'NONE', #162, 1000.000000000000000 ) ;
#252 = FACE_OUTER_BOUND ( 'NONE', #346, .T. ) ;
#253 = FACE_OUTER_BOUND ( 'NONE', #403, .T. ) ;
#254 = ADVANCED_FACE ( 'NONE', ( #253 ), #691, .T. ) ;
#255 = CARTESIAN_POINT ( 'NONE',  ( 21.99999999999980460, -21.99999999999992539, 15.87499999999997868 ) ) ;
#256 = VERTEX_POINT ( 'NONE', #1003 ) ;
#257 = VERTEX_POINT ( 'NONE', #588 ) ;
#258 = EDGE_CURVE ( 'NONE', #706, #195, #564, .T. ) ;
#259 = LINE ( 'NONE', #611, #1110 ) ;
#260 = CYLINDRICAL_SURFACE ( 'NONE', #119, 4.800000000000151701 ) ;
#261 = DIRECTION ( 'NONE',  ( -1.000000000000000000, -1.419319207617397591E-15, 0.000000000000000000 ) ) ;
#262 = EDGE_LOOP ( 'NONE', ( #801, #169, #184, #457 ) ) ;
#263 = AXIS2_PLACEMENT_3D ( 'NONE', #829, #1262, #1070 ) ;
#264 = ORIENTED_EDGE ( 'NONE', *, *, #657, .F. ) ;
#265 =( NAMED_UNIT ( * ) PLANE_ANGLE_UNIT ( ) SI_UNIT ( $, .RADIAN. ) );
#266 = VECTOR ( 'NONE', #1306, 1000.000000000000000 ) ;
#267 = CARTESIAN_POINT ( 'NONE',  ( 26.79999999999997939, 21.99999999999996092, 6.374999999999976019 ) ) ;
#268 = VECTOR ( 'NONE', #1024, 1000.000000000000000 ) ;
#269 = DIRECTION ( 'NONE',  ( -0.000000000000000000, -0.000000000000000000, 1.000000000000000000 ) ) ;
#270 = CARTESIAN_POINT ( 'NONE',  ( -21.99999999999978328, -26.80000000000013571, 6.374999999999976019 ) ) ;
#271 = LINE ( 'NONE', #1360, #1363 ) ;
#272 = VERTEX_POINT ( 'NONE', #1006 ) ;
#273 = ORIENTED_EDGE ( 'NONE', *, *, #760, .T. ) ;
#274 = EDGE_LOOP ( 'NONE', ( #1046, #423, #146, #9 ) ) ;
#275 = DIRECTION ( 'NONE',  ( 1.000000000000000000, 0.000000000000000000, 0.000000000000000000 ) ) ;
#276 = DIRECTION ( 'NONE',  ( 1.000000000000000000, -1.192622389734020799E-14, 0.000000000000000000 ) ) ;
#277 = VECTOR ( 'NONE', #390, 1000.000000000000000 ) ;
#278 = CARTESIAN_POINT ( 'NONE',  ( -26.79999999999999716, -21.99999999999992539, 15.87499999999997868 ) ) ;
#279 = EDGE_CURVE ( 'NONE', #91, #975, #1121, .T. ) ;
#280 = ORIENTED_EDGE ( 'NONE', *, *, #330, .T. ) ;
#281 = CARTESIAN_POINT ( 'NONE',  ( -21.99999999999978328, -26.80000000000013571, 6.374999999999976019 ) ) ;
#282 = VERTEX_POINT ( 'NONE', #467 ) ;
#283 = ADVANCED_FACE ( 'NONE', ( #1348 ), #247, .T. ) ;
#284 = LINE ( 'NONE', #1151, #946 ) ;
#285 = EDGE_CURVE ( 'NONE', #1393, #732, #48, .T. ) ;
#286 = DIRECTION ( 'NONE',  ( -1.000000000000000000, -2.050127744336231981E-15, 0.000000000000000000 ) ) ;
#287 = LINE ( 'NONE', #714, #370 ) ;
#288 = EDGE_CURVE ( 'NONE', #865, #819, #149, .T. ) ;
#289 = ORIENTED_EDGE ( 'NONE', *, *, #657, .T. ) ;
#290 = ORIENTED_EDGE ( 'NONE', *, *, #1101, .T. ) ;
#291 = VECTOR ( 'NONE', #1095, 1000.000000000000000 ) ;
#292 = LINE ( 'NONE', #506, #515 ) ;
#293 = CARTESIAN_POINT ( 'NONE',  ( 21.99999999999990763, 30.00000000000023448, 15.87499999999997868 ) ) ;
#294 = VECTOR ( 'NONE', #485, 1000.000000000000000 ) ;
#295 = VERTEX_POINT ( 'NONE', #1321 ) ;
#296 = LINE ( 'NONE', #281, #1205 ) ;
#297 = ORIENTED_EDGE ( 'NONE', *, *, #540, .F. ) ;
#298 = LINE ( 'NONE', #843, #93 ) ;
#299 = LINE ( 'NONE', #395, #155 ) ;
#300 = CARTESIAN_POINT ( 'NONE',  ( 21.99999999999984723, -26.80000000000020677, 15.87499999999997868 ) ) ;
#301 = ORIENTED_EDGE ( 'NONE', *, *, #928, .F. ) ;
#302 = VERTEX_POINT ( 'NONE', #582 ) ;
#303 = VECTOR ( 'NONE', #62, 1000.000000000000000 ) ;
#304 = VERTEX_POINT ( 'NONE', #356 ) ;
#305 = VERTEX_POINT ( 'NONE', #1325 ) ;
#306 = CYLINDRICAL_SURFACE ( 'NONE', #1359, 4.000000000000239808 ) ;
#307 = DIRECTION ( 'NONE',  ( 1.734723475976806463E-14, -1.000000000000000000, 0.000000000000000000 ) ) ;
#308 = ADVANCED_FACE ( 'NONE', ( #1222 ), #1217, .F. ) ;
#309 = CARTESIAN_POINT ( 'NONE',  ( 22.50000000000000711, -21.99999999999992539, 14.87499999999996803 ) ) ;
#310 = EDGE_LOOP ( 'NONE', ( #901, #705, #669, #591, #381, #71 ) ) ;
#311 = ORIENTED_EDGE ( 'NONE', *, *, #1161, .F. ) ;
#312 = EDGE_LOOP ( 'NONE', ( #1311, #196, #1134, #504, #1116, #555, #840, #931, #151, #1354 ) ) ;
#313 = ORIENTED_EDGE ( 'NONE', *, *, #1078, .T. ) ;
#314 = VECTOR ( 'NONE', #1023, 1000.000000000000000 ) ;
#315 = CARTESIAN_POINT ( 'NONE',  ( 26.80000000000008242, -21.99999999999992539, 14.87499999999996803 ) ) ;
#316 = DIRECTION ( 'NONE',  ( -1.000000000000000000, -1.419319207617397591E-15, 0.000000000000000000 ) ) ;
#317 = CARTESIAN_POINT ( 'NONE',  ( 21.99999999999990052, -30.00000000000020606, 15.87499999999997868 ) ) ;
#318 = ORIENTED_EDGE ( 'NONE', *, *, #70, .F. ) ;
#319 = CARTESIAN_POINT ( 'NONE',  ( 20.00000000000000000, 26.80000000000012506, 15.87499999999997868 ) ) ;
#320 = VECTOR ( 'NONE', #208, 1000.000000000000000 ) ;
#321 = VECTOR ( 'NONE', #1280, 1000.000000000000000 ) ;
#322 = VERTEX_POINT ( 'NONE', #144 ) ;
#323 = ORIENTED_EDGE ( 'NONE', *, *, #177, .F. ) ;
#324 = ADVANCED_FACE ( 'NONE', ( #574 ), #306, .F. ) ;
#325 = LINE ( 'NONE', #1171, #320 ) ;
#326 = DIRECTION ( 'NONE',  ( 1.000000000000000000, 0.000000000000000000, -0.000000000000000000 ) ) ;
#327 = CARTESIAN_POINT ( 'NONE',  ( 26.00000000000001066, -21.99999999999999645, 15.87499999999997868 ) ) ;
#328 = ORIENTED_EDGE ( 'NONE', *, *, #1255, .T. ) ;
#329 = DIRECTION ( 'NONE',  ( -0.000000000000000000, -0.000000000000000000, -1.000000000000000000 ) ) ;
#330 = EDGE_CURVE ( 'NONE', #1195, #524, #1187, .T. ) ;
#331 = VERTEX_POINT ( 'NONE', #733 ) ;
#332 = VECTOR ( 'NONE', #513, 1000.000000000000000 ) ;
#333 = ORIENTED_EDGE ( 'NONE', *, *, #1285, .F. ) ;
#334 = PLANE ( 'NONE',  #1223 ) ;
#335 = DIRECTION ( 'NONE',  ( 1.000000000000000000, 0.000000000000000000, 0.000000000000000000 ) ) ;
#336 = EDGE_CURVE ( 'NONE', #322, #584, #816, .T. ) ;
#337 = LINE ( 'NONE', #137, #397 ) ;
#338 = DIRECTION ( 'NONE',  ( 3.154042683594220758E-16, 1.000000000000000000, -0.000000000000000000 ) ) ;
#339 = EDGE_CURVE ( 'NONE', #1287, #1028, #620, .T. ) ;
#340 = ORIENTED_EDGE ( 'NONE', *, *, #1083, .F. ) ;
#341 = CARTESIAN_POINT ( 'NONE',  ( -20.00000000000000000, 26.00000000000017764, 15.87499999999997868 ) ) ;
#342 = VECTOR ( 'NONE', #1138, 1000.000000000000000 ) ;
#343 = DIRECTION ( 'NONE',  ( -0.000000000000000000, -0.000000000000000000, -1.000000000000000000 ) ) ;
#344 = DIRECTION ( 'NONE',  ( -0.000000000000000000, -0.000000000000000000, -1.000000000000000000 ) ) ;
#345 = CIRCLE ( 'NONE', #652, 4.800000000000141043 ) ;
#346 = EDGE_LOOP ( 'NONE', ( #909, #301, #648, #756 ) ) ;
#347 = VECTOR ( 'NONE', #1069, 1000.000000000000000 ) ;
#348 = DIRECTION ( 'NONE',  ( -1.000000000000000000, 0.000000000000000000, 0.000000000000000000 ) ) ;
#349 = DIRECTION ( 'NONE',  ( -1.000000000000000000, 0.000000000000000000, 2.551063935260010614E-17 ) ) ;
#350 = DIRECTION ( 'NONE',  ( 0.000000000000000000, 0.000000000000000000, -1.000000000000000000 ) ) ;
#351 = EDGE_CURVE ( 'NONE', #1261, #739, #215, .T. ) ;
#352 = VECTOR ( 'NONE', #1340, 1000.000000000000000 ) ;
#353 = LINE ( 'NONE', #545, #974 ) ;
#354 = CYLINDRICAL_SURFACE ( 'NONE', #1219, 8.000000000000270006 ) ;
#355 = EDGE_CURVE ( 'NONE', #975, #1195, #438, .T. ) ;
#356 = CARTESIAN_POINT ( 'NONE',  ( 20.00000000000000000, 26.00000000000018474, 15.87499999999997868 ) ) ;
#357 = ORIENTED_EDGE ( 'NONE', *, *, #578, .T. ) ;
#358 = CARTESIAN_POINT ( 'NONE',  ( 8.500000000000000000, -26.00000000000015277, 5.300000000000002487 ) ) ;
#359 = CARTESIAN_POINT ( 'NONE',  ( 8.500000000000000000, -26.00000000000015277, 5.300000000000002487 ) ) ;
#360 = VERTEX_POINT ( 'NONE', #534 ) ;
#361 = AXIS2_PLACEMENT_3D ( 'NONE', #539, #970, #7 ) ;
#362 = EDGE_CURVE ( 'NONE', #1261, #331, #298, .T. ) ;
#363 = DIRECTION ( 'NONE',  ( -1.000000000000000000, 0.000000000000000000, 0.000000000000000000 ) ) ;
#364 = FACE_OUTER_BOUND ( 'NONE', #312, .T. ) ;
#365 = DIRECTION ( 'NONE',  ( -4.731064025391309198E-16, 1.000000000000000000, 0.000000000000000000 ) ) ;
#366 = ORIENTED_EDGE ( 'NONE', *, *, #239, .F. ) ;
#367 = EDGE_LOOP ( 'NONE', ( #100, #969, #1009, #1170, #323, #694, #190, #1304, #958, #542, #1150, #788 ) ) ;
#368 = EDGE_CURVE ( 'NONE', #302, #1335, #1388, .T. ) ;
#369 =( LENGTH_UNIT ( ) NAMED_UNIT ( * ) SI_UNIT ( .MILLI., .METRE. ) );
#370 = VECTOR ( 'NONE', #4, 1000.000000000000000 ) ;
#371 = LINE ( 'NONE', #1365, #433 ) ;
#372 = LINE ( 'NONE', #359, #1384 ) ;
#373 = CARTESIAN_POINT ( 'NONE',  ( 26.80000000000000426, 21.99999999999996092, 15.87499999999997868 ) ) ;
#374 = VERTEX_POINT ( 'NONE', #1291 ) ;
#375 = ORIENTED_EDGE ( 'NONE', *, *, #820, .F. ) ;
#376 = ORIENTED_EDGE ( 'NONE', *, *, #79, .F. ) ;
#377 = CARTESIAN_POINT ( 'NONE',  ( 26.80000000000005400, -21.99999999999992539, 15.87499999999997868 ) ) ;
#378 = DIRECTION ( 'NONE',  ( -1.000000000000000000, 0.000000000000000000, 0.000000000000000000 ) ) ;
#379 = DIRECTION ( 'NONE',  ( 0.000000000000000000, 0.000000000000000000, -1.000000000000000000 ) ) ;
#380 = CARTESIAN_POINT ( 'NONE',  ( 21.99999999999990408, -21.99999999999999645, 15.87499999999997868 ) ) ;
#381 = ORIENTED_EDGE ( 'NONE', *, *, #997, .F. ) ;
#382 = AXIS2_PLACEMENT_3D ( 'NONE', #682, #1253, #275 ) ;
#383 = ORIENTED_EDGE ( 'NONE', *, *, #393, .T. ) ;
#384 = DIRECTION ( 'NONE',  ( 0.000000000000000000, 0.000000000000000000, 1.000000000000000000 ) ) ;
#385 = AXIS2_PLACEMENT_3D ( 'NONE', #1339, #140, #1109 ) ;
#386 = EDGE_CURVE ( 'NONE', #1185, #799, #1274, .T. ) ;
#387 = VECTOR ( 'NONE', #450, 1000.000000000000000 ) ;
#388 = DIRECTION ( 'NONE',  ( 1.000000000000000000, -7.264154555652892330E-14, -0.000000000000000000 ) ) ;
#389 = LINE ( 'NONE', #1052, #926 ) ;
#390 = DIRECTION ( 'NONE',  ( -0.000000000000000000, -0.000000000000000000, -1.000000000000000000 ) ) ;
#391 = ORIENTED_EDGE ( 'NONE', *, *, #355, .T. ) ;
#392 = EDGE_LOOP ( 'NONE', ( #366, #1051, #205, #1361 ) ) ;
#393 = EDGE_CURVE ( 'NONE', #584, #360, #566, .T. ) ;
#394 = EDGE_CURVE ( 'NONE', #1176, #1391, #325, .T. ) ;
#395 = CARTESIAN_POINT ( 'NONE',  ( 21.99999999999990408, -26.00000000000009948, 15.87499999999997868 ) ) ;
#396 = DIRECTION ( 'NONE',  ( -0.000000000000000000, -0.000000000000000000, -1.000000000000000000 ) ) ;
#397 = VECTOR ( 'NONE', #663, 1000.000000000000000 ) ;
#398 = FACE_OUTER_BOUND ( 'NONE', #367, .T. ) ;
#399 = DIRECTION ( 'NONE',  ( 1.000000000000000000, 0.000000000000000000, 0.000000000000000000 ) ) ;
#400 = DIRECTION ( 'NONE',  ( 1.000000000000000000, -1.192622389734020799E-14, 0.000000000000000000 ) ) ;
#401 = CARTESIAN_POINT ( 'NONE',  ( 26.80000000000000426, 21.99999999999996092, 14.87499999999996803 ) ) ;
#402 = ORIENTED_EDGE ( 'NONE', *, *, #475, .T. ) ;
#403 = EDGE_LOOP ( 'NONE', ( #1279, #211, #203, #391, #280, #38 ) ) ;
#404 =( GEOMETRIC_REPRESENTATION_CONTEXT ( 3 ) GLOBAL_UNCERTAINTY_ASSIGNED_CONTEXT ( ( #1122 ) ) GLOBAL_UNIT_ASSIGNED_CONTEXT ( ( #369, #1235, #1324 ) ) REPRESENTATION_CONTEXT ( 'NONE', 'WORKASPACE' ) );
#405 = VERTEX_POINT ( 'NONE', #750 ) ;
#406 = CARTESIAN_POINT ( 'NONE',  ( 21.99999999999984723, -26.80000000000020677, 14.87499999999996803 ) ) ;
#407 = CARTESIAN_POINT ( 'NONE',  ( 21.99999999999984013, 26.00000000000014211, 6.374999999999976019 ) ) ;
#408 = EDGE_CURVE ( 'NONE', #1050, #1149, #1062, .T. ) ;
#409 = CIRCLE ( 'NONE', #1017, 4.000000000000256684 ) ;
#410 = EDGE_LOOP ( 'NONE', ( #482, #1000, #376, #1277 ) ) ;
#411 = ADVANCED_FACE ( 'NONE', ( #112 ), #96, .F. ) ;
#412 = ORIENTED_EDGE ( 'NONE', *, *, #227, .T. ) ;
#413 = DIRECTION ( 'NONE',  ( 1.000000000000000000, 8.673617379884112386E-16, -0.000000000000000000 ) ) ;
#414 = LINE ( 'NONE', #81, #64 ) ;
#415 = DIRECTION ( 'NONE',  ( 0.000000000000000000, 0.000000000000000000, 1.000000000000000000 ) ) ;
#416 = ADVANCED_BREP_SHAPE_REPRESENTATION ( 'lightbox_cover', ( #1034, #90 ), #202 ) ;
#417 = ORIENTED_EDGE ( 'NONE', *, *, #853, .T. ) ;
#418 = VERTEX_POINT ( 'NONE', #544 ) ;
#419 = ORIENTED_EDGE ( 'NONE', *, *, #702, .T. ) ;
#420 = DIRECTION ( 'NONE',  ( 1.000000000000000000, -2.168404344970947021E-14, 0.000000000000000000 ) ) ;
#421 = DIRECTION ( 'NONE',  ( 0.000000000000000000, 0.000000000000000000, 1.000000000000000000 ) ) ;
#422 = PLANE ( 'NONE',  #189 ) ;
#423 = ORIENTED_EDGE ( 'NONE', *, *, #258, .F. ) ;
#424 = CARTESIAN_POINT ( 'NONE',  ( -26.80000000000003624, 21.99999999999969091, 6.374999999999976019 ) ) ;
#425 = VERTEX_POINT ( 'NONE', #1180 ) ;
#426 = AXIS2_PLACEMENT_3D ( 'NONE', #743, #712, #1063 ) ;
#427 = CARTESIAN_POINT ( 'NONE',  ( -21.99999999999978328, -26.80000000000013571, 14.87499999999996803 ) ) ;
#428 = CARTESIAN_POINT ( 'NONE',  ( -21.99999999999978328, -26.80000000000013571, 15.87499999999997868 ) ) ;
#429 = CARTESIAN_POINT ( 'NONE',  ( -21.99999999999978328, -30.00000000000019185, 15.87499999999997868 ) ) ;
#430 = ORIENTED_EDGE ( 'NONE', *, *, #636, .F. ) ;
#431 = LINE ( 'NONE', #1303, #229 ) ;
#432 = VECTOR ( 'NONE', #959, 1000.000000000000000 ) ;
#433 = VECTOR ( 'NONE', #602, 1000.000000000000000 ) ;
#434 = ADVANCED_FACE ( 'NONE', ( #1395 ), #11, .F. ) ;
#435 = VERTEX_POINT ( 'NONE', #701 ) ;
#436 = EDGE_LOOP ( 'NONE', ( #630, #1386, #725, #1268 ) ) ;
#437 = EDGE_CURVE ( 'NONE', #360, #1077, #1269, .T. ) ;
#438 = LINE ( 'NONE', #105, #520 ) ;
#439 = DIRECTION ( 'NONE',  ( 0.000000000000000000, 0.000000000000000000, 1.000000000000000000 ) ) ;
#440 = EDGE_CURVE ( 'NONE', #1105, #846, #1358, .T. ) ;
#441 = CARTESIAN_POINT ( 'NONE',  ( 30.00000000000009592, 21.99999999999992184, 15.87499999999997868 ) ) ;
#442 = DIRECTION ( 'NONE',  ( 0.000000000000000000, -0.000000000000000000, -1.000000000000000000 ) ) ;
#443 = VERTEX_POINT ( 'NONE', #315 ) ;
#444 = CIRCLE ( 'NONE', #1233, 4.800000000000151701 ) ;
#445 = ORIENTED_EDGE ( 'NONE', *, *, #285, .F. ) ;
#446 = CARTESIAN_POINT ( 'NONE',  ( -21.99999999999978684, 21.99999999999992184, 6.374999999999976019 ) ) ;
#447 = DIRECTION ( 'NONE',  ( 1.000000000000000000, 0.000000000000000000, 0.000000000000000000 ) ) ;
#448 = DIRECTION ( 'NONE',  ( -0.000000000000000000, -0.000000000000000000, -1.000000000000000000 ) ) ;
#449 = DIRECTION ( 'NONE',  ( 8.673617379884111400E-16, -1.000000000000000000, 0.000000000000000000 ) ) ;
#450 = DIRECTION ( 'NONE',  ( 8.673617379884111400E-16, -1.000000000000000000, 0.000000000000000000 ) ) ;
#451 = ORIENTED_EDGE ( 'NONE', *, *, #58, .T. ) ;
#452 = LINE ( 'NONE', #1314, #291 ) ;
#453 = AXIS2_PLACEMENT_3D ( 'NONE', #246, #363, #803 ) ;
#454 = FILL_AREA_STYLE_COLOUR ( '', #763 ) ;
#455 = PRODUCT_RELATED_PRODUCT_CATEGORY ( 'part', '', ( #773 ) ) ;
#456 = CARTESIAN_POINT ( 'NONE',  ( 21.99999999999990763, 30.00000000000023448, 14.87499999999996803 ) ) ;
#457 = ORIENTED_EDGE ( 'NONE', *, *, #1083, .T. ) ;
#458 = VECTOR ( 'NONE', #868, 1000.000000000000000 ) ;
#459 = AXIS2_PLACEMENT_3D ( 'NONE', #1013, #49, #378 ) ;
#460 = EDGE_CURVE ( 'NONE', #726, #873, #389, .T. ) ;
#461 = DIRECTION ( 'NONE',  ( 0.000000000000000000, 0.000000000000000000, -1.000000000000000000 ) ) ;
#462 = DIRECTION ( 'NONE',  ( -1.734723475976806779E-14, 1.000000000000000000, 0.000000000000000000 ) ) ;
#463 = CARTESIAN_POINT ( 'NONE',  ( -26.00000000000002132, -21.99999999999992539, 6.374999999999976019 ) ) ;
#464 = ORIENTED_EDGE ( 'NONE', *, *, #867, .T. ) ;
#465 = APPLICATION_PROTOCOL_DEFINITION ( 'draft international standard', 'automotive_design', 1998, #1118 ) ;
#466 = DIRECTION ( 'NONE',  ( 0.000000000000000000, 0.000000000000000000, 1.000000000000000000 ) ) ;
#467 = CARTESIAN_POINT ( 'NONE',  ( 26.00000000000001776, 21.99999999999996447, 6.374999999999976019 ) ) ;
#468 = EDGE_LOOP ( 'NONE', ( #1322, #318, #340, #264, #532, #625 ) ) ;
#469 = EDGE_CURVE ( 'NONE', #195, #1185, #1249, .T. ) ;
#470 = DIRECTION ( 'NONE',  ( -0.000000000000000000, -0.000000000000000000, -1.000000000000000000 ) ) ;
#471 = CARTESIAN_POINT ( 'NONE',  ( 21.99999999999990052, -30.00000000000020606, 15.87499999999997868 ) ) ;
#472 = FACE_OUTER_BOUND ( 'NONE', #892, .T. ) ;
#473 = VERTEX_POINT ( 'NONE', #1197 ) ;
#474 = ORIENTED_EDGE ( 'NONE', *, *, #79, .T. ) ;
#475 = EDGE_CURVE ( 'NONE', #808, #1077, #17, .T. ) ;
#476 = AXIS2_PLACEMENT_3D ( 'NONE', #618, #83, #1368 ) ;
#477 = CARTESIAN_POINT ( 'NONE',  ( 21.99999999999990763, 30.00000000000023448, 15.87499999999997868 ) ) ;
#478 = LINE ( 'NONE', #906, #812 ) ;
#479 = CARTESIAN_POINT ( 'NONE',  ( 21.99999999999990408, -26.00000000000009948, 15.87499999999997868 ) ) ;
#480 = ORIENTED_EDGE ( 'NONE', *, *, #983, .F. ) ;
#481 = EDGE_LOOP ( 'NONE', ( #243, #1398, #78, #1037, #1392, #1345 ) ) ;
#482 = ORIENTED_EDGE ( 'NONE', *, *, #440, .T. ) ;
#483 = LINE ( 'NONE', #601, #26 ) ;
#484 = LINE ( 'NONE', #913, #387 ) ;
#485 = DIRECTION ( 'NONE',  ( -0.000000000000000000, -0.000000000000000000, -1.000000000000000000 ) ) ;
#486 = DIRECTION ( 'NONE',  ( -0.000000000000000000, -0.000000000000000000, -1.000000000000000000 ) ) ;
#487 = ORIENTED_EDGE ( 'NONE', *, *, #70, .T. ) ;
#488 = ORIENTED_EDGE ( 'NONE', *, *, #386, .T. ) ;
#489 = CARTESIAN_POINT ( 'NONE',  ( 26.00000000000001066, -21.99999999999999645, 6.374999999999976019 ) ) ;
#490 = LINE ( 'NONE', #929, #951 ) ;
#491 = CARTESIAN_POINT ( 'NONE',  ( 21.99999999999984013, 26.00000000000014211, 6.374999999999976019 ) ) ;
#492 = LINE ( 'NONE', #145, #698 ) ;
#493 = ORIENTED_EDGE ( 'NONE', *, *, #718, .T. ) ;
#494 = ADVANCED_FACE ( 'NONE', ( #223 ), #334, .F. ) ;
#495 = EDGE_CURVE ( 'NONE', #257, #405, #259, .T. ) ;
#496 = VECTOR ( 'NONE', #1018, 1000.000000000000000 ) ;
#497 = CARTESIAN_POINT ( 'NONE',  ( -20.00000000000000000, 26.80000000000017479, 15.87499999999997868 ) ) ;
#498 = DIRECTION ( 'NONE',  ( -0.000000000000000000, -0.000000000000000000, -1.000000000000000000 ) ) ;
#499 = VECTOR ( 'NONE', #329, 1000.000000000000000 ) ;
#500 = AXIS2_PLACEMENT_3D ( 'NONE', #1357, #286, #1347 ) ;
#501 = LINE ( 'NONE', #823, #206 ) ;
#502 = CARTESIAN_POINT ( 'NONE',  ( 26.79999999999997939, 21.99999999999996092, 15.87499999999997868 ) ) ;
#503 = EDGE_LOOP ( 'NONE', ( #168, #911, #1175, #85 ) ) ;
#504 = ORIENTED_EDGE ( 'NONE', *, *, #1148, .T. ) ;
#505 = ORIENTED_EDGE ( 'NONE', *, *, #928, .T. ) ;
#506 = CARTESIAN_POINT ( 'NONE',  ( -21.99999999999978328, -26.80000000000013571, 15.87499999999997868 ) ) ;
#507 = PLANE ( 'NONE',  #500 ) ;
#508 = DIRECTION ( 'NONE',  ( 1.192622389734020799E-14, 1.000000000000000000, -0.000000000000000000 ) ) ;
#509 = ORIENTED_EDGE ( 'NONE', *, *, #1263, .F. ) ;
#510 = ORIENTED_EDGE ( 'NONE', *, *, #58, .F. ) ;
#511 = ADVANCED_FACE ( 'NONE', ( #805 ), #507, .F. ) ;
#512 = DIRECTION ( 'NONE',  ( 1.000000000000000000, 0.000000000000000000, 0.000000000000000000 ) ) ;
#513 = DIRECTION ( 'NONE',  ( -0.000000000000000000, -0.000000000000000000, -1.000000000000000000 ) ) ;
#514 = CARTESIAN_POINT ( 'NONE',  ( 21.99999999999984013, 21.99999999999996447, 6.374999999999976019 ) ) ;
#515 = VECTOR ( 'NONE', #960, 1000.000000000000000 ) ;
#516 = ORIENTED_EDGE ( 'NONE', *, *, #1401, .T. ) ;
#517 = CIRCLE ( 'NONE', #1312, 8.000000000000266454 ) ;
#518 = DIRECTION ( 'NONE',  ( -0.000000000000000000, -0.000000000000000000, -1.000000000000000000 ) ) ;
#519 = DIRECTION ( 'NONE',  ( 1.000000000000000000, 0.000000000000000000, 0.000000000000000000 ) ) ;
#520 = VECTOR ( 'NONE', #1164, 1000.000000000000000 ) ;
#521 = LINE ( 'NONE', #1283, #730 ) ;
#522 = ORIENTED_EDGE ( 'NONE', *, *, #641, .F. ) ;
#523 = ORIENTED_EDGE ( 'NONE', *, *, #1226, .T. ) ;
#524 = VERTEX_POINT ( 'NONE', #1338 ) ;
#525 = EDGE_LOOP ( 'NONE', ( #1298, #649, #932, #680, #510, #560, #755, #1387, #992, #163, #1186 ) ) ;
#526 = CARTESIAN_POINT ( 'NONE',  ( -26.80000000000003624, 21.99999999999969091, 15.87499999999997868 ) ) ;
#527 = DIRECTION ( 'NONE',  ( 1.734723475976806463E-14, -1.000000000000000000, 0.000000000000000000 ) ) ;
#528 = CARTESIAN_POINT ( 'NONE',  ( 21.99999999999990052, -30.00000000000020606, 14.87499999999996803 ) ) ;
#529 = ORIENTED_EDGE ( 'NONE', *, *, #1255, .F. ) ;
#530 = AXIS2_PLACEMENT_3D ( 'NONE', #536, #415, #179 ) ;
#531 = DIRECTION ( 'NONE',  ( -0.000000000000000000, -0.000000000000000000, -1.000000000000000000 ) ) ;
#532 = ORIENTED_EDGE ( 'NONE', *, *, #559, .T. ) ;
#533 = EDGE_CURVE ( 'NONE', #110, #305, #490, .T. ) ;
#534 = CARTESIAN_POINT ( 'NONE',  ( -26.79999999999999716, -21.99999999999992539, 14.87499999999996803 ) ) ;
#535 = DIRECTION ( 'NONE',  ( -0.000000000000000000, -0.000000000000000000, -1.000000000000000000 ) ) ;
#536 = CARTESIAN_POINT ( 'NONE',  ( -21.99999999999978328, -21.99999999999992539, 14.87499999999996803 ) ) ;
#537 = ORIENTED_EDGE ( 'NONE', *, *, #154, .F. ) ;
#538 = EDGE_CURVE ( 'NONE', #1159, #374, #1120, .T. ) ;
#539 = CARTESIAN_POINT ( 'NONE',  ( 21.99999999999984013, 26.80000000000012150, 15.87499999999997868 ) ) ;
#540 = EDGE_CURVE ( 'NONE', #739, #902, #815, .T. ) ;
#541 = ORIENTED_EDGE ( 'NONE', *, *, #783, .T. ) ;
#542 = ORIENTED_EDGE ( 'NONE', *, *, #469, .F. ) ;
#543 = EDGE_CURVE ( 'NONE', #902, #331, #501, .T. ) ;
#544 = CARTESIAN_POINT ( 'NONE',  ( 26.00000000000001066, -21.99999999999999645, 6.374999999999976019 ) ) ;
#545 = CARTESIAN_POINT ( 'NONE',  ( -21.99999999999981171, 26.80000000000022808, 14.87499999999996803 ) ) ;
#546 = CARTESIAN_POINT ( 'NONE',  ( -26.79999999999999716, -21.99999999999992539, 15.87499999999997868 ) ) ;
#547 = CARTESIAN_POINT ( 'NONE',  ( 26.80000000000005400, -21.99999999999992539, 15.87499999999997868 ) ) ;
#548 = CIRCLE ( 'NONE', #244, 4.800000000000196110 ) ;
#549 = ORIENTED_EDGE ( 'NONE', *, *, #1114, .F. ) ;
#550 = ORIENTED_EDGE ( 'NONE', *, *, #696, .F. ) ;
#551 = DIRECTION ( 'NONE',  ( -0.000000000000000000, -0.000000000000000000, -1.000000000000000000 ) ) ;
#552 = PLANE ( 'NONE',  #693 ) ;
#553 = CARTESIAN_POINT ( 'NONE',  ( -21.99999999999978684, 30.00000000000022027, 14.87499999999996803 ) ) ;
#554 = DIRECTION ( 'NONE',  ( 1.000000000000000000, -2.255140518770030661E-14, -0.000000000000000000 ) ) ;
#555 = ORIENTED_EDGE ( 'NONE', *, *, #1351, .T. ) ;
#556 = VECTOR ( 'NONE', #1390, 1000.000000000000000 ) ;
#557 = CYLINDRICAL_SURFACE ( 'NONE', #1369, 4.800000000000141043 ) ;
#558 = FACE_OUTER_BOUND ( 'NONE', #948, .T. ) ;
#559 = EDGE_CURVE ( 'NONE', #77, #374, #371, .T. ) ;
#560 = ORIENTED_EDGE ( 'NONE', *, *, #355, .F. ) ;
#561 = CARTESIAN_POINT ( 'NONE',  ( 8.500000000000000000, -26.80000000000010019, 5.300000000000002487 ) ) ;
#562 = VECTOR ( 'NONE', #1281, 1000.000000000000000 ) ;
#563 = CARTESIAN_POINT ( 'NONE',  ( -21.99999999999981171, 26.80000000000017479, 15.87499999999997868 ) ) ;
#564 = LINE ( 'NONE', #684, #294 ) ;
#565 = ORIENTED_EDGE ( 'NONE', *, *, #953, .F. ) ;
#566 = CIRCLE ( 'NONE', #925, 4.800000000000213873 ) ;
#567 = AXIS2_PLACEMENT_3D ( 'NONE', #43, #1026, #1256 ) ;
#568 = DIRECTION ( 'NONE',  ( -1.000000000000000000, 0.000000000000000000, 0.000000000000000000 ) ) ;
#569 = DIRECTION ( 'NONE',  ( -0.000000000000000000, -0.000000000000000000, -1.000000000000000000 ) ) ;
#570 = EDGE_CURVE ( 'NONE', #1393, #973, #1236, .T. ) ;
#571 = ORIENTED_EDGE ( 'NONE', *, *, #1227, .T. ) ;
#572 = AXIS2_PLACEMENT_3D ( 'NONE', #845, #617, #1049 ) ;
#573 = EDGE_CURVE ( 'NONE', #1008, #1185, #1254, .T. ) ;
#574 = FACE_OUTER_BOUND ( 'NONE', #878, .T. ) ;
#575 = EDGE_CURVE ( 'NONE', #1352, #304, #939, .T. ) ;
#576 = CARTESIAN_POINT ( 'NONE',  ( -26.80000000000006111, 21.99999999999969091, 15.87499999999997868 ) ) ;
#577 = VERTEX_POINT ( 'NONE', #581 ) ;
#578 = EDGE_CURVE ( 'NONE', #737, #256, #1043, .T. ) ;
#579 = LINE ( 'NONE', #790, #1106 ) ;
#580 = VECTOR ( 'NONE', #1053, 1000.000000000000000 ) ;
#581 = CARTESIAN_POINT ( 'NONE',  ( -21.99999999999981171, 26.80000000000022808, 14.87499999999996803 ) ) ;
#582 = CARTESIAN_POINT ( 'NONE',  ( 30.00000000000008882, -21.99999999999992539, 15.87499999999997868 ) ) ;
#583 = LINE ( 'NONE', #1238, #1190 ) ;
#584 = VERTEX_POINT ( 'NONE', #1139 ) ;
#585 = AXIS2_PLACEMENT_3D ( 'NONE', #754, #991, #350 ) ;
#586 = CARTESIAN_POINT ( 'NONE',  ( -26.79999999999999716, -21.99999999999992539, 15.87499999999997868 ) ) ;
#587 = LINE ( 'NONE', #1152, #158 ) ;
#588 = CARTESIAN_POINT ( 'NONE',  ( 21.99999999999990408, -26.00000000000009948, 15.87499999999997868 ) ) ;
#589 = LINE ( 'NONE', #56, #19 ) ;
#590 = ORIENTED_EDGE ( 'NONE', *, *, #833, .F. ) ;
#591 = ORIENTED_EDGE ( 'NONE', *, *, #783, .F. ) ;
#592 = DIRECTION ( 'NONE',  ( 0.000000000000000000, 0.000000000000000000, 1.000000000000000000 ) ) ;
#593 = EDGE_CURVE ( 'NONE', #726, #1402, #587, .T. ) ;
#594 = EDGE_CURVE ( 'NONE', #374, #1094, #796, .T. ) ;
#595 = LINE ( 'NONE', #75, #268 ) ;
#596 = DIRECTION ( 'NONE',  ( -0.000000000000000000, -0.000000000000000000, -1.000000000000000000 ) ) ;
#597 = CARTESIAN_POINT ( 'NONE',  ( 30.00000000000009592, 21.99999999999992184, 14.87499999999996803 ) ) ;
#598 = ORIENTED_EDGE ( 'NONE', *, *, #336, .T. ) ;
#599 = ORIENTED_EDGE ( 'NONE', *, *, #600, .T. ) ;
#600 = EDGE_CURVE ( 'NONE', #873, #723, #1373, .T. ) ;
#601 = CARTESIAN_POINT ( 'NONE',  ( 20.00000000000000000, 26.00000000000018474, 6.374999999999976019 ) ) ;
#602 = DIRECTION ( 'NONE',  ( -0.000000000000000000, -0.000000000000000000, -1.000000000000000000 ) ) ;
#603 = DIRECTION ( 'NONE',  ( -2.168404344970947021E-14, -1.000000000000000000, -0.000000000000000000 ) ) ;
#604 = VECTOR ( 'NONE', #988, 1000.000000000000000 ) ;
#605 = CYLINDRICAL_SURFACE ( 'NONE', #476, 4.000000000000176748 ) ;
#606 = AXIS2_PLACEMENT_3D ( 'NONE', #775, #447, #461 ) ;
#607 = ORIENTED_EDGE ( 'NONE', *, *, #905, .F. ) ;
#608 = CARTESIAN_POINT ( 'NONE',  ( 21.99999999999984013, 21.99999999999996447, 15.87499999999997868 ) ) ;
#609 = VECTOR ( 'NONE', #1075, 1000.000000000000000 ) ;
#610 = VECTOR ( 'NONE', #713, 1000.000000000000000 ) ;
#611 = CARTESIAN_POINT ( 'NONE',  ( 21.99999999999990408, -26.00000000000009948, 15.87499999999997868 ) ) ;
#612 = CARTESIAN_POINT ( 'NONE',  ( 8.500000000000000000, -26.80000000000010019, 5.300000000000002487 ) ) ;
#613 = VERTEX_POINT ( 'NONE', #178 ) ;
#614 = EDGE_LOOP ( 'NONE', ( #607, #375, #1299, #717 ) ) ;
#615 = LINE ( 'NONE', #621, #562 ) ;
#616 = EDGE_CURVE ( 'NONE', #813, #91, #595, .T. ) ;
#617 = DIRECTION ( 'NONE',  ( 1.000000000000000000, -1.577021341797099039E-16, 0.000000000000000000 ) ) ;
#618 = CARTESIAN_POINT ( 'NONE',  ( 21.99999999999984013, 21.99999999999996447, 15.87499999999997868 ) ) ;
#619 = ORIENTED_EDGE ( 'NONE', *, *, #957, .T. ) ;
#620 = LINE ( 'NONE', #727, #1132 ) ;
#621 = CARTESIAN_POINT ( 'NONE',  ( -20.00000000000000000, 26.80000000000017479, 6.374999999999976019 ) ) ;
#622 = DIRECTION ( 'NONE',  ( -1.000000000000000000, 0.000000000000000000, 2.551063935260010614E-17 ) ) ;
#623 = EDGE_LOOP ( 'NONE', ( #1135, #522, #800, #1208 ) ) ;
#624 = AXIS2_PLACEMENT_3D ( 'NONE', #608, #728, #200 ) ;
#625 = ORIENTED_EDGE ( 'NONE', *, *, #594, .T. ) ;
#626 = DIRECTION ( 'NONE',  ( -1.000000000000000000, 0.000000000000000000, 0.000000000000000000 ) ) ;
#627 = DIRECTION ( 'NONE',  ( 1.000000000000000000, 0.000000000000000000, -0.000000000000000000 ) ) ;
#628 = FACE_OUTER_BOUND ( 'NONE', #187, .T. ) ;
#629 = AXIS2_PLACEMENT_3D ( 'NONE', #446, #551, #986 ) ;
#630 = ORIENTED_EDGE ( 'NONE', *, *, #139, .T. ) ;
#631 = FACE_OUTER_BOUND ( 'NONE', #1168, .T. ) ;
#632 = ORIENTED_EDGE ( 'NONE', *, *, #123, .T. ) ;
#633 = DIRECTION ( 'NONE',  ( 0.000000000000000000, 1.000000000000000000, 0.000000000000000000 ) ) ;
#634 = PLANE ( 'NONE',  #426 ) ;
#635 = CARTESIAN_POINT ( 'NONE',  ( -8.499999999999996447, -26.00000000000015277, 6.374999999999976019 ) ) ;
#636 = EDGE_CURVE ( 'NONE', #732, #197, #830, .T. ) ;
#637 = ADVANCED_FACE ( 'NONE', ( #252 ), #683, .T. ) ;
#638 = ORIENTED_EDGE ( 'NONE', *, *, #1114, .T. ) ;
#639 = AXIS2_PLACEMENT_3D ( 'NONE', #646, #870, #20 ) ;
#640 = CARTESIAN_POINT ( 'NONE',  ( -26.79999999999999716, -21.99999999999992539, 6.374999999999976019 ) ) ;
#641 = EDGE_CURVE ( 'NONE', #304, #1105, #478, .T. ) ;
#642 = ORIENTED_EDGE ( 'NONE', *, *, #1161, .T. ) ;
#643 = ORIENTED_EDGE ( 'NONE', *, *, #460, .T. ) ;
#644 = CARTESIAN_POINT ( 'NONE',  ( 22.50000000000000355, 21.99999999999996447, 6.374999999999976019 ) ) ;
#645 = FACE_OUTER_BOUND ( 'NONE', #310, .T. ) ;
#646 = CARTESIAN_POINT ( 'NONE',  ( -21.99999999999978328, 21.99999999999995026, 14.87499999999996803 ) ) ;
#647 = LINE ( 'NONE', #1193, #1332 ) ;
#648 = ORIENTED_EDGE ( 'NONE', *, *, #1101, .F. ) ;
#649 = ORIENTED_EDGE ( 'NONE', *, *, #362, .F. ) ;
#650 = DIRECTION ( 'NONE',  ( 0.000000000000000000, 0.000000000000000000, 1.000000000000000000 ) ) ;
#651 = CARTESIAN_POINT ( 'NONE',  ( -21.99999999999978684, 21.99999999999992184, 15.87499999999997868 ) ) ;
#652 = AXIS2_PLACEMENT_3D ( 'NONE', #1157, #1372, #399 ) ;
#653 = DIRECTION ( 'NONE',  ( 0.000000000000000000, 0.000000000000000000, 1.000000000000000000 ) ) ;
#654 = DIRECTION ( 'NONE',  ( 0.000000000000000000, -1.000000000000000000, 0.000000000000000000 ) ) ;
#655 = CIRCLE ( 'NONE', #903, 8.000000000000266454 ) ;
#656 = ORIENTED_EDGE ( 'NONE', *, *, #895, .F. ) ;
#657 = EDGE_CURVE ( 'NONE', #77, #985, #484, .T. ) ;
#658 = DIRECTION ( 'NONE',  ( 0.000000000000000000, 1.000000000000000000, -0.000000000000000000 ) ) ;
#659 = CYLINDRICAL_SURFACE ( 'NONE', #213, 4.800000000000213873 ) ;
#660 = EDGE_CURVE ( 'NONE', #902, #973, #1099, .T. ) ;
#661 = LINE ( 'NONE', #219, #978 ) ;
#662 = LINE ( 'NONE', #561, #1129 ) ;
#663 = DIRECTION ( 'NONE',  ( -0.000000000000000000, -0.000000000000000000, -1.000000000000000000 ) ) ;
#664 = PLANE ( 'NONE',  #361 ) ;
#665 = DIRECTION ( 'NONE',  ( 0.000000000000000000, 0.000000000000000000, 1.000000000000000000 ) ) ;
#666 = CIRCLE ( 'NONE', #382, 8.000000000000270006 ) ;
#667 = DIRECTION ( 'NONE',  ( -0.000000000000000000, -0.000000000000000000, -1.000000000000000000 ) ) ;
#668 = FACE_OUTER_BOUND ( 'NONE', #233, .T. ) ;
#669 = ORIENTED_EDGE ( 'NONE', *, *, #123, .F. ) ;
#670 = AXIS2_PLACEMENT_3D ( 'NONE', #50, #914, #806 ) ;
#671 = ADVANCED_FACE ( 'NONE', ( #703 ), #1366, .F. ) ;
#672 = VECTOR ( 'NONE', #60, 1000.000000000000000 ) ;
#673 = CARTESIAN_POINT ( 'NONE',  ( 21.99999999999980815, 21.99999999999995026, 15.87499999999997868 ) ) ;
#674 = ADVANCED_FACE ( 'NONE', ( #678 ), #167, .F. ) ;
#675 = EDGE_CURVE ( 'NONE', #197, #195, #900, .T. ) ;
#676 = DIRECTION ( 'NONE',  ( 2.255140518770030661E-14, 1.000000000000000000, -0.000000000000000000 ) ) ;
#677 = UNCERTAINTY_MEASURE_WITH_UNIT (LENGTH_MEASURE( 1.000000000000000082E-05 ), #1137, 'distance_accuracy_value', 'NONE');
#678 = FACE_OUTER_BOUND ( 'NONE', #436, .T. ) ;
#679 = EDGE_CURVE ( 'NONE', #799, #272, #492, .T. ) ;
#680 = ORIENTED_EDGE ( 'NONE', *, *, #1290, .F. ) ;
#681 = DIRECTION ( 'NONE',  ( 0.000000000000000000, 0.000000000000000000, 1.000000000000000000 ) ) ;
#682 = CARTESIAN_POINT ( 'NONE',  ( -21.99999999999978328, 21.99999999999995026, 15.87499999999997868 ) ) ;
#683 = CYLINDRICAL_SURFACE ( 'NONE', #459, 8.000000000000285993 ) ;
#684 = CARTESIAN_POINT ( 'NONE',  ( -26.00000000000004263, 21.99999999999992184, 15.87499999999997868 ) ) ;
#685 = LINE ( 'NONE', #1231, #1097 ) ;
#686 = ORIENTED_EDGE ( 'NONE', *, *, #895, .T. ) ;
#687 = ORIENTED_EDGE ( 'NONE', *, *, #22, .F. ) ;
#688 = LINE ( 'NONE', #1128, #314 ) ;
#689 = VECTOR ( 'NONE', #470, 1000.000000000000000 ) ;
#690 = CARTESIAN_POINT ( 'NONE',  ( 20.00000000000000000, 26.00000000000018474, 15.87499999999997868 ) ) ;
#691 = PLANE ( 'NONE',  #695 ) ;
#692 = CARTESIAN_POINT ( 'NONE',  ( -26.00000000000002132, -21.99999999999992539, 15.87499999999997868 ) ) ;
#693 = AXIS2_PLACEMENT_3D ( 'NONE', #859, #987, #18 ) ;
#694 = ORIENTED_EDGE ( 'NONE', *, *, #1194, .F. ) ;
#695 = AXIS2_PLACEMENT_3D ( 'NONE', #797, #1131, #779 ) ;
#696 = EDGE_CURVE ( 'NONE', #374, #577, #94, .T. ) ;
#697 = EDGE_CURVE ( 'NONE', #125, #726, #271, .T. ) ;
#698 = VECTOR ( 'NONE', #922, 1000.000000000000000 ) ;
#699 = DIRECTION ( 'NONE',  ( -1.000000000000000000, -4.731064025391309198E-16, 0.000000000000000000 ) ) ;
#700 = CARTESIAN_POINT ( 'NONE',  ( -8.499999999999996447, -26.00000000000015277, 15.87499999999997158 ) ) ;
#701 = CARTESIAN_POINT ( 'NONE',  ( -20.00000000000000000, 26.00000000000017764, 15.87499999999997868 ) ) ;
#702 = EDGE_CURVE ( 'NONE', #425, #1050, #908, .T. ) ;
#703 = FACE_OUTER_BOUND ( 'NONE', #1341, .T. ) ;
#704 = ORIENTED_EDGE ( 'NONE', *, *, #593, .F. ) ;
#705 = ORIENTED_EDGE ( 'NONE', *, *, #828, .T. ) ;
#706 = VERTEX_POINT ( 'NONE', #1021 ) ;
#707 = VECTOR ( 'NONE', #1224, 1000.000000000000000 ) ;
#708 = DIRECTION ( 'NONE',  ( 4.731064025391309198E-16, -1.000000000000000000, 0.000000000000000000 ) ) ;
#709 = CARTESIAN_POINT ( 'NONE',  ( 26.80000000000000426, 21.99999999999996092, 14.87499999999996803 ) ) ;
#710 = LINE ( 'NONE', #502, #277 ) ;
#711 = DIRECTION ( 'NONE',  ( 1.000000000000000000, -3.154042683594220758E-16, 0.000000000000000000 ) ) ;
#712 = DIRECTION ( 'NONE',  ( 0.000000000000000000, -1.000000000000000000, 0.000000000000000000 ) ) ;
#713 = DIRECTION ( 'NONE',  ( -0.000000000000000000, -0.000000000000000000, -1.000000000000000000 ) ) ;
#714 = CARTESIAN_POINT ( 'NONE',  ( 21.99999999999984013, 26.80000000000012150, 15.87499999999997868 ) ) ;
#715 = ORIENTED_EDGE ( 'NONE', *, *, #1282, .F. ) ;
#716 = DIRECTION ( 'NONE',  ( 1.000000000000000000, -1.734723475976970980E-15, 0.000000000000000000 ) ) ;
#717 = ORIENTED_EDGE ( 'NONE', *, *, #351, .T. ) ;
#718 = EDGE_CURVE ( 'NONE', #873, #1087, #710, .T. ) ;
#719 = DIRECTION ( 'NONE',  ( -2.050127744336231981E-15, 1.000000000000000000, 0.000000000000000000 ) ) ;
#720 = VECTOR ( 'NONE', #449, 1000.000000000000000 ) ;
#721 = EDGE_CURVE ( 'NONE', #941, #846, #583, .T. ) ;
#722 = DIRECTION ( 'NONE',  ( -0.000000000000000000, -0.000000000000000000, -1.000000000000000000 ) ) ;
#723 = VERTEX_POINT ( 'NONE', #597 ) ;
#724 = ORIENTED_EDGE ( 'NONE', *, *, #1166, .T. ) ;
#725 = ORIENTED_EDGE ( 'NONE', *, *, #802, .F. ) ;
#726 = VERTEX_POINT ( 'NONE', #373 ) ;
#727 = CARTESIAN_POINT ( 'NONE',  ( -21.99999999999978684, 30.00000000000022027, 15.87499999999997868 ) ) ;
#728 = DIRECTION ( 'NONE',  ( -0.000000000000000000, -0.000000000000000000, -1.000000000000000000 ) ) ;
#729 = LINE ( 'NONE', #210, #127 ) ;
#730 = VECTOR ( 'NONE', #1374, 1000.000000000000000 ) ;
#731 = ORIENTED_EDGE ( 'NONE', *, *, #573, .T. ) ;
#732 = VERTEX_POINT ( 'NONE', #692 ) ;
#733 = CARTESIAN_POINT ( 'NONE',  ( -8.499999999999996447, -26.80000000000010019, 6.374999999999976019 ) ) ;
#734 = CARTESIAN_POINT ( 'NONE',  ( 22.50000000000000355, -26.00000000000015277, 6.374999999999976019 ) ) ;
#735 = CARTESIAN_POINT ( 'NONE',  ( -21.99999999999981171, 26.80000000000022808, 15.87499999999997868 ) ) ;
#736 = ORIENTED_EDGE ( 'NONE', *, *, #849, .T. ) ;
#737 = VERTEX_POINT ( 'NONE', #1141 ) ;
#738 = AXIS2_PLACEMENT_3D ( 'NONE', #771, #653, #1216 ) ;
#739 = VERTEX_POINT ( 'NONE', #930 ) ;
#740 = EDGE_CURVE ( 'NONE', #1247, #77, #787, .T. ) ;
#741 = AXIS2_PLACEMENT_3D ( 'NONE', #341, #348, #880 ) ;
#742 = DIRECTION ( 'NONE',  ( -0.000000000000000000, -0.000000000000000000, -1.000000000000000000 ) ) ;
#743 = CARTESIAN_POINT ( 'NONE',  ( -26.79999999999999716, -21.99999999999992539, 15.87499999999997868 ) ) ;
#744 = AXIS2_PLACEMENT_3D ( 'NONE', #14, #344, #124 ) ;
#745 = CARTESIAN_POINT ( 'NONE',  ( 8.500000000000000000, -26.80000000000010019, 2.499999999999998224 ) ) ;
#746 = VECTOR ( 'NONE', #66, 1000.000000000000000 ) ;
#747 = ORIENTED_EDGE ( 'NONE', *, *, #258, .T. ) ;
#748 = PLANE ( 'NONE',  #1288 ) ;
#749 = ORIENTED_EDGE ( 'NONE', *, *, #227, .F. ) ;
#750 = CARTESIAN_POINT ( 'NONE',  ( 21.99999999999990408, -26.00000000000014921, 6.374999999999976019 ) ) ;
#751 = CARTESIAN_POINT ( 'NONE',  ( 8.500000000000000000, -26.00000000000015277, 5.300000000000002487 ) ) ;
#752 = CARTESIAN_POINT ( 'NONE',  ( 21.99999999999984013, 21.99999999999996447, 15.87499999999997868 ) ) ;
#753 = VECTOR ( 'NONE', #962, 1000.000000000000000 ) ;
#754 = CARTESIAN_POINT ( 'NONE',  ( 8.500000000000000000, -26.80000000000010019, 5.300000000000002487 ) ) ;
#755 = ORIENTED_EDGE ( 'NONE', *, *, #279, .F. ) ;
#756 = ORIENTED_EDGE ( 'NONE', *, *, #1029, .T. ) ;
#757 = CARTESIAN_POINT ( 'NONE',  ( -21.99999999999978328, 21.99999999999995026, 14.87499999999996803 ) ) ;
#758 = DIRECTION ( 'NONE',  ( -1.000000000000000000, 7.589415207398545238E-15, 0.000000000000000000 ) ) ;
#759 = DIRECTION ( 'NONE',  ( 1.000000000000000000, 1.734723475976806779E-14, -0.000000000000000000 ) ) ;
#760 = EDGE_CURVE ( 'NONE', #985, #808, #1007, .T. ) ;
#761 = DIRECTION ( 'NONE',  ( -1.000000000000000000, 0.000000000000000000, 2.551063935260010614E-17 ) ) ;
#762 = ORIENTED_EDGE ( 'NONE', *, *, #538, .F. ) ;
#763 = COLOUR_RGB ( '',0.7921568627450980005, 0.8196078431372548767, 0.9333333333333333481 ) ;
#764 = PLANE ( 'NONE',  #1329 ) ;
#765 = FILL_AREA_STYLE ('',( #454 ) ) ;
#766 = VECTOR ( 'NONE', #786, 1000.000000000000000 ) ;
#767 = CARTESIAN_POINT ( 'NONE',  ( -21.99999999999978328, -26.80000000000013571, 15.87499999999997868 ) ) ;
#768 = VECTOR ( 'NONE', #761, 1000.000000000000000 ) ;
#769 = ORIENTED_EDGE ( 'NONE', *, *, #1079, .T. ) ;
#770 = CARTESIAN_POINT ( 'NONE',  ( 30.00000000000008882, -21.99999999999992539, 14.87499999999996803 ) ) ;
#771 = CARTESIAN_POINT ( 'NONE',  ( 21.99999999999980815, 21.99999999999995026, 14.87499999999996803 ) ) ;
#772 = DIRECTION ( 'NONE',  ( -1.000000000000000000, -0.000000000000000000, -0.000000000000000000 ) ) ;
#773 = PRODUCT ( 'lightbox_cover', 'lightbox_cover', '', ( #1251 ) ) ;
#774 = ORIENTED_EDGE ( 'NONE', *, *, #368, .F. ) ;
#775 = CARTESIAN_POINT ( 'NONE',  ( 20.00000000000000000, 26.00000000000018474, 15.87499999999997868 ) ) ;
#776 = DIRECTION ( 'NONE',  ( -0.000000000000000000, -0.000000000000000000, -1.000000000000000000 ) ) ;
#777 = DIRECTION ( 'NONE',  ( 1.000000000000000000, 0.000000000000000000, 0.000000000000000000 ) ) ;
#778 = EDGE_CURVE ( 'NONE', #63, #256, #685, .T. ) ;
#779 = DIRECTION ( 'NONE',  ( -3.280800900192554359E-16, 0.000000000000000000, -1.000000000000000000 ) ) ;
#780 = ORIENTED_EDGE ( 'NONE', *, *, #1189, .T. ) ;
#781 = ADVANCED_FACE ( 'NONE', ( #472 ), #1035, .T. ) ;
#782 =( NAMED_UNIT ( * ) SI_UNIT ( $, .STERADIAN. ) SOLID_ANGLE_UNIT ( ) );
#783 = EDGE_CURVE ( 'NONE', #1335, #443, #68, .T. ) ;
#784 = CIRCLE ( 'NONE', #5, 4.000000000000239808 ) ;
#785 = EDGE_CURVE ( 'NONE', #110, #272, #589, .T. ) ;
#786 = DIRECTION ( 'NONE',  ( 1.000000000000000000, 0.000000000000000000, -0.000000000000000000 ) ) ;
#787 = LINE ( 'NONE', #576, #303 ) ;
#788 = ORIENTED_EDGE ( 'NONE', *, *, #1032, .F. ) ;
#789 = AXIS2_PLACEMENT_3D ( 'NONE', #479, #907, #1333 ) ;
#790 = CARTESIAN_POINT ( 'NONE',  ( -20.00000000000000000, 26.00000000000017764, 15.87499999999997868 ) ) ;
#791 = FACE_OUTER_BOUND ( 'NONE', #1278, .T. ) ;
#792 = PRODUCT_DEFINITION_CONTEXT ( 'detailed design', #1118, 'design' ) ;
#793 = DIRECTION ( 'NONE',  ( -0.000000000000000000, -0.000000000000000000, -1.000000000000000000 ) ) ;
#794 = ORIENTED_EDGE ( 'NONE', *, *, #440, .F. ) ;
#795 = EDGE_LOOP ( 'NONE', ( #1155, #297, #69, #965 ) ) ;
#796 = LINE ( 'NONE', #165, #245 ) ;
#797 = CARTESIAN_POINT ( 'NONE',  ( 22.50000000000000355, -26.80000000000010019, 5.300000000000002487 ) ) ;
#798 = DIRECTION ( 'NONE',  ( -1.000000000000000000, 0.000000000000000000, 0.000000000000000000 ) ) ;
#799 = VERTEX_POINT ( 'NONE', #915 ) ;
#800 = ORIENTED_EDGE ( 'NONE', *, *, #575, .F. ) ;
#801 = ORIENTED_EDGE ( 'NONE', *, *, #437, .T. ) ;
#802 = EDGE_CURVE ( 'NONE', #1016, #257, #1342, .T. ) ;
#803 = DIRECTION ( 'NONE',  ( 0.000000000000000000, 0.000000000000000000, 1.000000000000000000 ) ) ;
#804 = MECHANICAL_DESIGN_GEOMETRIC_PRESENTATION_REPRESENTATION (  '', ( #1174 ), #404 ) ;
#805 = FACE_OUTER_BOUND ( 'NONE', #481, .T. ) ;
#806 = DIRECTION ( 'NONE',  ( 1.000000000000000000, 0.000000000000000000, 0.000000000000000000 ) ) ;
#807 = DIRECTION ( 'NONE',  ( 0.000000000000000000, 0.000000000000000000, 1.000000000000000000 ) ) ;
#808 = VERTEX_POINT ( 'NONE', #98 ) ;
#809 = VECTOR ( 'NONE', #719, 1000.000000000000000 ) ;
#810 = VERTEX_POINT ( 'NONE', #1271 ) ;
#811 = AXIS2_PLACEMENT_3D ( 'NONE', #767, #338, #864 ) ;
#812 = VECTOR ( 'NONE', #159, 1000.000000000000000 ) ;
#813 = VERTEX_POINT ( 'NONE', #300 ) ;
#814 = CARTESIAN_POINT ( 'NONE',  ( 20.00000000000000000, 26.00000000000018474, 6.374999999999976019 ) ) ;
#815 = LINE ( 'NONE', #700, #136 ) ;
#816 = LINE ( 'NONE', #427, #347 ) ;
#817 = CARTESIAN_POINT ( 'NONE',  ( 21.99999999999990408, -26.00000000000009948, 6.374999999999976019 ) ) ;
#818 = EDGE_LOOP ( 'NONE', ( #571, #1350, #311, #1327 ) ) ;
#819 = VERTEX_POINT ( 'NONE', #528 ) ;
#820 = EDGE_CURVE ( 'NONE', #295, #52, #944, .T. ) ;
#821 = AXIS2_PLACEMENT_3D ( 'NONE', #995, #1082, #568 ) ;
#822 = CARTESIAN_POINT ( 'NONE',  ( -8.499999999999996447, -26.80000000000010019, 2.499999999999998668 ) ) ;
#823 = CARTESIAN_POINT ( 'NONE',  ( -8.499999999999996447, 21.99999999999996447, 6.374999999999976019 ) ) ;
#824 = EDGE_CURVE ( 'NONE', #473, #282, #968, .T. ) ;
#825 = ADVANCED_FACE ( 'NONE', ( #628 ), #422, .T. ) ;
#826 = PLANE ( 'NONE',  #883 ) ;
#827 = ORIENTED_EDGE ( 'NONE', *, *, #538, .T. ) ;
#828 = EDGE_CURVE ( 'NONE', #975, #425, #861, .T. ) ;
#829 = CARTESIAN_POINT ( 'NONE',  ( 21.99999999999980815, 21.99999999999995026, 14.87499999999996803 ) ) ;
#830 = LINE ( 'NONE', #1130, #1136 ) ;
#831 = FACE_OUTER_BOUND ( 'NONE', #836, .T. ) ;
#832 = CIRCLE ( 'NONE', #174, 8.000000000000287770 ) ;
#833 = EDGE_CURVE ( 'NONE', #256, #1176, #287, .T. ) ;
#834 = EDGE_LOOP ( 'NONE', ( #827, #866, #207, #619 ) ) ;
#835 = CARTESIAN_POINT ( 'NONE',  ( 26.00000000000001066, -21.99999999999999645, 15.87499999999997868 ) ) ;
#836 = EDGE_LOOP ( 'NONE', ( #1273, #1378, #23, #108 ) ) ;
#837 = FACE_OUTER_BOUND ( 'NONE', #1045, .T. ) ;
#838 = AXIS2_PLACEMENT_3D ( 'NONE', #497, #1266, #716 ) ;
#839 = LINE ( 'NONE', #735, #556 ) ;
#840 = ORIENTED_EDGE ( 'NONE', *, *, #239, .T. ) ;
#841 = EDGE_LOOP ( 'NONE', ( #488, #1218, #549, #731 ) ) ;
#842 = ORIENTED_EDGE ( 'NONE', *, *, #204, .T. ) ;
#843 = CARTESIAN_POINT ( 'NONE',  ( -8.499999999999996447, -26.80000000000010019, 15.87499999999997158 ) ) ;
#844 = CARTESIAN_POINT ( 'NONE',  ( -30.00000000000005329, 21.99999999999992184, 14.87499999999996803 ) ) ;
#845 = CARTESIAN_POINT ( 'NONE',  ( 26.00000000000001066, -21.99999999999999645, 15.87499999999997868 ) ) ;
#846 = VERTEX_POINT ( 'NONE', #407 ) ;
#847 = ORIENTED_EDGE ( 'NONE', *, *, #778, .T. ) ;
#848 = ADVANCED_FACE ( 'NONE', ( #76 ), #89, .F. ) ;
#849 = EDGE_CURVE ( 'NONE', #305, #1287, #839, .T. ) ;
#850 = EDGE_LOOP ( 'NONE', ( #847, #1370, #1375, #505 ) ) ;
#851 = DIRECTION ( 'NONE',  ( 2.168404344970947021E-14, 1.000000000000000000, 0.000000000000000000 ) ) ;
#852 = LINE ( 'NONE', #1165, #580 ) ;
#853 = EDGE_CURVE ( 'NONE', #435, #799, #521, .T. ) ;
#854 = DIRECTION ( 'NONE',  ( -1.000000000000000000, 1.192622389734020799E-14, 0.000000000000000000 ) ) ;
#855 = DIRECTION ( 'NONE',  ( 1.000000000000000000, 0.000000000000000000, 0.000000000000000000 ) ) ;
#856 = CIRCLE ( 'NONE', #241, 4.800000000000252065 ) ;
#857 = ORIENTED_EDGE ( 'NONE', *, *, #981, .F. ) ;
#858 = DIRECTION ( 'NONE',  ( -0.000000000000000000, -0.000000000000000000, -1.000000000000000000 ) ) ;
#859 = CARTESIAN_POINT ( 'NONE',  ( 21.99999999999984013, 21.99999999999996447, 15.87499999999997868 ) ) ;
#860 = AXIS2_PLACEMENT_3D ( 'NONE', #526, #413, #921 ) ;
#861 = LINE ( 'NONE', #309, #753 ) ;
#862 = VECTOR ( 'NONE', #400, 1000.000000000000000 ) ;
#863 = VERTEX_POINT ( 'NONE', #429 ) ;
#864 = DIRECTION ( 'NONE',  ( -1.000000000000000000, 3.154042683594220758E-16, 0.000000000000000000 ) ) ;
#865 = VERTEX_POINT ( 'NONE', #317 ) ;
#866 = ORIENTED_EDGE ( 'NONE', *, *, #559, .F. ) ;
#867 = EDGE_CURVE ( 'NONE', #1050, #810, #444, .T. ) ;
#868 = DIRECTION ( 'NONE',  ( 1.000000000000000000, -0.000000000000000000, -0.000000000000000000 ) ) ;
#869 = CARTESIAN_POINT ( 'NONE',  ( -20.00000000000000000, 26.00000000000017764, 15.87499999999997868 ) ) ;
#870 = DIRECTION ( 'NONE',  ( 0.000000000000000000, 0.000000000000000000, 1.000000000000000000 ) ) ;
#871 = CARTESIAN_POINT ( 'NONE',  ( 21.99999999999980815, 21.99999999999995026, 14.87499999999996803 ) ) ;
#872 = ORIENTED_EDGE ( 'NONE', *, *, #394, .T. ) ;
#873 = VERTEX_POINT ( 'NONE', #401 ) ;
#874 = DIRECTION ( 'NONE',  ( -0.000000000000000000, -0.000000000000000000, -1.000000000000000000 ) ) ;
#875 = LINE ( 'NONE', #428, #266 ) ;
#876 = CARTESIAN_POINT ( 'NONE',  ( 8.500000000000000000, -26.80000000000010019, 2.499999999999998224 ) ) ;
#877 = CARTESIAN_POINT ( 'NONE',  ( 26.80000000000008242, -21.99999999999992539, 15.87499999999997868 ) ) ;
#878 = EDGE_LOOP ( 'NONE', ( #182, #430, #445, #1143 ) ) ;
#879 = AXIS2_PLACEMENT_3D ( 'NONE', #1270, #498, #512 ) ;
#880 = DIRECTION ( 'NONE',  ( 0.000000000000000000, 0.000000000000000000, 1.000000000000000000 ) ) ;
#881 = AXIS2_PLACEMENT_3D ( 'NONE', #24, #977, #234 ) ;
#882 = DIRECTION ( 'NONE',  ( -2.551063935260010614E-17, 0.000000000000000000, -1.000000000000000000 ) ) ;
#883 = AXIS2_PLACEMENT_3D ( 'NONE', #514, #945, #1383 ) ;
#884 = FACE_OUTER_BOUND ( 'NONE', #525, .T. ) ;
#885 = AXIS2_PLACEMENT_3D ( 'NONE', #1300, #420, #851 ) ;
#886 = ORIENTED_EDGE ( 'NONE', *, *, #154, .T. ) ;
#887 = PLANE ( 'NONE',  #881 ) ;
#888 = DIRECTION ( 'NONE',  ( 1.000000000000000000, 0.000000000000000000, 0.000000000000000000 ) ) ;
#889 = DIRECTION ( 'NONE',  ( -0.000000000000000000, -0.000000000000000000, -1.000000000000000000 ) ) ;
#890 = PRODUCT_DEFINITION_SHAPE ( 'NONE', 'NONE',  #1308 ) ;
#891 = VECTOR ( 'NONE', #622, 1000.000000000000000 ) ;
#892 = EDGE_LOOP ( 'NONE', ( #1362, #774, #1239, #963 ) ) ;
#893 = ADVANCED_FACE ( 'NONE', ( #831 ), #1183, .F. ) ;
#894 = EDGE_CURVE ( 'NONE', #1016, #418, #1276, .T. ) ;
#895 = EDGE_CURVE ( 'NONE', #863, #613, #729, .T. ) ;
#896 = DIRECTION ( 'NONE',  ( 0.000000000000000000, 0.000000000000000000, 1.000000000000000000 ) ) ;
#897 = VERTEX_POINT ( 'NONE', #1167 ) ;
#898 = LINE ( 'NONE', #489, #496 ) ;
#899 = DIRECTION ( 'NONE',  ( 1.000000000000000000, 0.000000000000000000, 0.000000000000000000 ) ) ;
#900 = LINE ( 'NONE', #51, #1315 ) ;
#901 = ORIENTED_EDGE ( 'NONE', *, *, #279, .T. ) ;
#902 = VERTEX_POINT ( 'NONE', #635 ) ;
#903 = AXIS2_PLACEMENT_3D ( 'NONE', #133, #1230, #55 ) ;
#904 = CARTESIAN_POINT ( 'NONE',  ( -21.99999999999978328, -21.99999999999992539, 6.374999999999976019 ) ) ;
#905 = EDGE_CURVE ( 'NONE', #52, #739, #1072, .T. ) ;
#906 = CARTESIAN_POINT ( 'NONE',  ( 20.00000000000000000, 26.00000000000018474, 15.87499999999997868 ) ) ;
#907 = DIRECTION ( 'NONE',  ( 1.419319207617397591E-15, -1.000000000000000000, 0.000000000000000000 ) ) ;
#908 = LINE ( 'NONE', #248, #352 ) ;
#909 = ORIENTED_EDGE ( 'NONE', *, *, #981, .T. ) ;
#910 = ADVANCED_FACE ( 'NONE', ( #940 ), #1264, .F. ) ;
#911 = ORIENTED_EDGE ( 'NONE', *, *, #339, .F. ) ;
#912 = CARTESIAN_POINT ( 'NONE',  ( -26.00000000000002132, -21.99999999999992539, 15.87499999999997868 ) ) ;
#913 = CARTESIAN_POINT ( 'NONE',  ( -26.80000000000003624, 21.99999999999969091, 15.87499999999997868 ) ) ;
#914 = DIRECTION ( 'NONE',  ( 0.000000000000000000, 0.000000000000000000, 1.000000000000000000 ) ) ;
#915 = CARTESIAN_POINT ( 'NONE',  ( -20.00000000000000000, 26.00000000000017764, 6.374999999999976019 ) ) ;
#916 = ORIENTED_EDGE ( 'NONE', *, *, #573, .F. ) ;
#917 = ORIENTED_EDGE ( 'NONE', *, *, #99, .F. ) ;
#918 = ORIENTED_EDGE ( 'NONE', *, *, #894, .F. ) ;
#919 = AXIS2_PLACEMENT_3D ( 'NONE', #1211, #759, #462 ) ;
#920 = DIRECTION ( 'NONE',  ( 0.000000000000000000, -1.000000000000000000, 0.000000000000000000 ) ) ;
#921 = DIRECTION ( 'NONE',  ( -8.673617379884112386E-16, 1.000000000000000000, 0.000000000000000000 ) ) ;
#922 = DIRECTION ( 'NONE',  ( 0.000000000000000000, 1.000000000000000000, 0.000000000000000000 ) ) ;
#923 = ORIENTED_EDGE ( 'NONE', *, *, #1285, .T. ) ;
#924 = EDGE_LOOP ( 'NONE', ( #599, #1074, #704, #643 ) ) ;
#925 = AXIS2_PLACEMENT_3D ( 'NONE', #191, #596, #2 ) ;
#926 = VECTOR ( 'NONE', #742, 1000.000000000000000 ) ;
#927 = LINE ( 'NONE', #1181, #1086 ) ;
#928 = EDGE_CURVE ( 'NONE', #1060, #63, #1054, .T. ) ;
#929 = CARTESIAN_POINT ( 'NONE',  ( -20.00000000000000000, 26.80000000000017479, 15.87499999999997868 ) ) ;
#930 = CARTESIAN_POINT ( 'NONE',  ( -8.499999999999996447, -26.00000000000015277, 2.499999999999998668 ) ) ;
#931 = ORIENTED_EDGE ( 'NONE', *, *, #905, .T. ) ;
#932 = ORIENTED_EDGE ( 'NONE', *, *, #138, .F. ) ;
#933 = ADVANCED_FACE ( 'NONE', ( #186 ), #13, .T. ) ;
#934 = ORIENTED_EDGE ( 'NONE', *, *, #953, .T. ) ;
#935 = ADVANCED_FACE ( 'NONE', ( #980 ), #235, .T. ) ;
#936 = AXIS2_PLACEMENT_3D ( 'NONE', #255, #1349, #798 ) ;
#937 = ADVANCED_FACE ( 'NONE', ( #1302 ), #659, .T. ) ;
#938 = LINE ( 'NONE', #1259, #809 ) ;
#939 = LINE ( 'NONE', #690, #746 ) ;
#940 = FACE_OUTER_BOUND ( 'NONE', #1066, .T. ) ;
#941 = VERTEX_POINT ( 'NONE', #1096 ) ;
#942 = ORIENTED_EDGE ( 'NONE', *, *, #181, .F. ) ;
#943 = LINE ( 'NONE', #1364, #1126 ) ;
#944 = LINE ( 'NONE', #745, #1071 ) ;
#945 = DIRECTION ( 'NONE',  ( 0.000000000000000000, 0.000000000000000000, 1.000000000000000000 ) ) ;
#946 = VECTOR ( 'NONE', #176, 1000.000000000000000 ) ;
#947 = ORIENTED_EDGE ( 'NONE', *, *, #1166, .F. ) ;
#948 = EDGE_LOOP ( 'NONE', ( #872, #942, #32, #357, #1177 ) ) ;
#949 = CARTESIAN_POINT ( 'NONE',  ( -8.499999999999996447, -26.80000000000010019, 2.499999999999998668 ) ) ;
#950 = PLANE ( 'NONE',  #263 ) ;
#951 = VECTOR ( 'NONE', #1243, 1000.000000000000000 ) ;
#952 = DIRECTION ( 'NONE',  ( 0.000000000000000000, 0.000000000000000000, 1.000000000000000000 ) ) ;
#953 = EDGE_CURVE ( 'NONE', #1028, #1159, #1258, .T. ) ;
#954 = ADVANCED_FACE ( 'NONE', ( #1307 ), #557, .T. ) ;
#955 = ORIENTED_EDGE ( 'NONE', *, *, #1085, .F. ) ;
#956 = ORIENTED_EDGE ( 'NONE', *, *, #394, .F. ) ;
#957 = EDGE_CURVE ( 'NONE', #1247, #1159, #337, .T. ) ;
#958 = ORIENTED_EDGE ( 'NONE', *, *, #386, .F. ) ;
#959 = DIRECTION ( 'NONE',  ( 0.000000000000000000, 1.000000000000000000, 0.000000000000000000 ) ) ;
#960 = DIRECTION ( 'NONE',  ( -0.000000000000000000, -0.000000000000000000, -1.000000000000000000 ) ) ;
#961 = VECTOR ( 'NONE', #722, 1000.000000000000000 ) ;
#962 = DIRECTION ( 'NONE',  ( -0.000000000000000000, 1.000000000000000000, 0.000000000000000000 ) ) ;
#963 = ORIENTED_EDGE ( 'NONE', *, *, #288, .T. ) ;
#964 = FACE_OUTER_BOUND ( 'NONE', #1196, .T. ) ;
#965 = ORIENTED_EDGE ( 'NONE', *, *, #362, .T. ) ;
#966 = CARTESIAN_POINT ( 'NONE',  ( 22.50000000000000355, -26.80000000000010019, 5.300000000000002487 ) ) ;
#967 = DIRECTION ( 'NONE',  ( -1.000000000000000000, 0.000000000000000000, 0.000000000000000000 ) ) ;
#968 = LINE ( 'NONE', #201, #1047 ) ;
#969 = ORIENTED_EDGE ( 'NONE', *, *, #543, .T. ) ;
#970 = DIRECTION ( 'NONE',  ( -1.734723475976946920E-15, -1.000000000000000000, 0.000000000000000000 ) ) ;
#971 = VECTOR ( 'NONE', #65, 1000.000000000000000 ) ;
#972 = ADVANCED_FACE ( 'NONE', ( #114 ), #354, .T. ) ;
#973 = VERTEX_POINT ( 'NONE', #1320 ) ;
#974 = VECTOR ( 'NONE', #121, 1000.000000000000000 ) ;
#975 = VERTEX_POINT ( 'NONE', #1206 ) ;
#976 = DIRECTION ( 'NONE',  ( -0.000000000000000000, -0.000000000000000000, -1.000000000000000000 ) ) ;
#977 = DIRECTION ( 'NONE',  ( 7.264154555652893592E-14, 1.000000000000000000, -0.000000000000000000 ) ) ;
#978 = VECTOR ( 'NONE', #772, 1000.000000000000000 ) ;
#979 = ADVANCED_FACE ( 'NONE', ( #128 ), #240, .F. ) ;
#980 = FACE_OUTER_BOUND ( 'NONE', #614, .T. ) ;
#981 = EDGE_CURVE ( 'NONE', #723, #63, #1011, .T. ) ;
#982 = CARTESIAN_POINT ( 'NONE',  ( 8.500000000000000000, -26.80000000000010019, 2.499999999999998224 ) ) ;
#983 = EDGE_CURVE ( 'NONE', #125, #443, #1199, .T. ) ;
#984 = ORIENTED_EDGE ( 'NONE', *, *, #533, .F. ) ;
#985 = VERTEX_POINT ( 'NONE', #546 ) ;
#986 = DIRECTION ( 'NONE',  ( 1.000000000000000000, 0.000000000000000000, 0.000000000000000000 ) ) ;
#987 = DIRECTION ( 'NONE',  ( 0.000000000000000000, 0.000000000000000000, 1.000000000000000000 ) ) ;
#988 = DIRECTION ( 'NONE',  ( -0.000000000000000000, -0.000000000000000000, -1.000000000000000000 ) ) ;
#989 = PLANE ( 'NONE',  #585 ) ;
#990 = CARTESIAN_POINT ( 'NONE',  ( 21.99999999999980460, -21.99999999999992539, 14.87499999999996803 ) ) ;
#991 = DIRECTION ( 'NONE',  ( 1.000000000000000000, -0.000000000000000000, 0.000000000000000000 ) ) ;
#992 = ORIENTED_EDGE ( 'NONE', *, *, #1401, .F. ) ;
#993 = CIRCLE ( 'NONE', #225, 4.800000000000213873 ) ;
#994 = FACE_OUTER_BOUND ( 'NONE', #841, .T. ) ;
#995 = CARTESIAN_POINT ( 'NONE',  ( -21.99999999999978684, 21.99999999999992184, 15.87499999999997868 ) ) ;
#996 = VECTOR ( 'NONE', #1257, 1000.000000000000000 ) ;
#997 = EDGE_CURVE ( 'NONE', #819, #1335, #1309, .T. ) ;
#998 = CARTESIAN_POINT ( 'NONE',  ( -21.99999999999978328, -21.99999999999992539, 15.87499999999997868 ) ) ;
#999 = VECTOR ( 'NONE', #1147, 1000.000000000000000 ) ;
#1000 = ORIENTED_EDGE ( 'NONE', *, *, #721, .F. ) ;
#1001 = DIRECTION ( 'NONE',  ( -1.000000000000000000, 0.000000000000000000, 0.000000000000000000 ) ) ;
#1002 = ORIENTED_EDGE ( 'NONE', *, *, #696, .T. ) ;
#1003 = CARTESIAN_POINT ( 'NONE',  ( 21.99999999999984013, 26.80000000000014282, 14.87499999999996803 ) ) ;
#1004 = ORIENTED_EDGE ( 'NONE', *, *, #1194, .T. ) ;
#1005 = SURFACE_SIDE_STYLE ('',( #231 ) ) ;
#1006 = CARTESIAN_POINT ( 'NONE',  ( -20.00000000000000000, 26.80000000000017479, 6.374999999999976019 ) ) ;
#1007 = LINE ( 'NONE', #278, #707 ) ;
#1008 = VERTEX_POINT ( 'NONE', #1092 ) ;
#1009 = ORIENTED_EDGE ( 'NONE', *, *, #37, .F. ) ;
#1010 = EDGE_CURVE ( 'NONE', #577, #897, #122, .T. ) ;
#1011 = CIRCLE ( 'NONE', #738, 8.000000000000287770 ) ;
#1012 = CARTESIAN_POINT ( 'NONE',  ( 21.99999999999984013, 26.80000000000012150, 15.87499999999997868 ) ) ;
#1013 = CARTESIAN_POINT ( 'NONE',  ( 21.99999999999980815, 21.99999999999995026, 15.87499999999997868 ) ) ;
#1014 = CARTESIAN_POINT ( 'NONE',  ( 21.99999999999990408, -21.99999999999999645, 15.87499999999997868 ) ) ;
#1015 = CARTESIAN_POINT ( 'NONE',  ( 21.99999999999984013, 21.99999999999996447, 6.374999999999976019 ) ) ;
#1016 = VERTEX_POINT ( 'NONE', #327 ) ;
#1017 = AXIS2_PLACEMENT_3D ( 'NONE', #1202, #531, #21 ) ;
#1018 = DIRECTION ( 'NONE',  ( -1.577021341797099039E-16, -1.000000000000000000, -0.000000000000000000 ) ) ;
#1019 = CARTESIAN_POINT ( 'NONE',  ( -26.80000000000006111, 21.99999999999969091, 14.87499999999996803 ) ) ;
#1020 = CARTESIAN_POINT ( 'NONE',  ( 21.99999999999980460, -26.80000000000010019, 14.87499999999996803 ) ) ;
#1021 = CARTESIAN_POINT ( 'NONE',  ( -26.00000000000004263, 21.99999999999992184, 15.87499999999997868 ) ) ;
#1022 = ORIENTED_EDGE ( 'NONE', *, *, #824, .T. ) ;
#1023 = DIRECTION ( 'NONE',  ( -2.168404344970947021E-14, -1.000000000000000000, -0.000000000000000000 ) ) ;
#1024 = DIRECTION ( 'NONE',  ( -0.000000000000000000, -0.000000000000000000, -1.000000000000000000 ) ) ;
#1025 = DIRECTION ( 'NONE',  ( -0.000000000000000000, -0.000000000000000000, 1.000000000000000000 ) ) ;
#1026 = DIRECTION ( 'NONE',  ( -0.000000000000000000, -0.000000000000000000, -1.000000000000000000 ) ) ;
#1027 = ORIENTED_EDGE ( 'NONE', *, *, #1085, .T. ) ;
#1028 = VERTEX_POINT ( 'NONE', #553 ) ;
#1029 = EDGE_CURVE ( 'NONE', #1402, #723, #1107, .T. ) ;
#1030 = ORIENTED_EDGE ( 'NONE', *, *, #785, .T. ) ;
#1031 = CIRCLE ( 'NONE', #879, 4.000000000000176748 ) ;
#1032 = EDGE_CURVE ( 'NONE', #973, #197, #784, .T. ) ;
#1033 = CARTESIAN_POINT ( 'NONE',  ( 21.99999999999984013, 26.80000000000012150, 15.87499999999997868 ) ) ;
#1034 = MANIFOLD_SOLID_BREP ( 'Boss-Extrude9', #135 ) ;
#1035 = CYLINDRICAL_SURFACE ( 'NONE', #936, 8.000000000000282441 ) ;
#1036 = EDGE_CURVE ( 'NONE', #1060, #737, #688, .T. ) ;
#1037 = ORIENTED_EDGE ( 'NONE', *, *, #697, .F. ) ;
#1038 = EDGE_CURVE ( 'NONE', #305, #577, #217, .T. ) ;
#1039 = VECTOR ( 'NONE', #518, 1000.000000000000000 ) ;
#1040 = ORIENTED_EDGE ( 'NONE', *, *, #533, .T. ) ;
#1041 = AXIS2_PLACEMENT_3D ( 'NONE', #1015, #807, #150 ) ;
#1042 = CARTESIAN_POINT ( 'NONE',  ( 21.99999999999984723, -26.80000000000020677, 15.87499999999997868 ) ) ;
#1043 = LINE ( 'NONE', #1033, #610 ) ;
#1044 = CARTESIAN_POINT ( 'NONE',  ( 26.00000000000001066, -21.99999999999999645, 15.87499999999997868 ) ) ;
#1045 = EDGE_LOOP ( 'NONE', ( #1265, #84, #529, #417 ) ) ;
#1046 = ORIENTED_EDGE ( 'NONE', *, *, #675, .T. ) ;
#1047 = VECTOR ( 'NONE', #1381, 1000.000000000000000 ) ;
#1048 = CARTESIAN_POINT ( 'NONE',  ( -21.99999999999978684, 26.00000000000017764, 6.374999999999976019 ) ) ;
#1049 = DIRECTION ( 'NONE',  ( 1.577021341797099039E-16, 1.000000000000000000, 0.000000000000000000 ) ) ;
#1050 = VERTEX_POINT ( 'NONE', #59 ) ;
#1051 = ORIENTED_EDGE ( 'NONE', *, *, #1226, .F. ) ;
#1052 = CARTESIAN_POINT ( 'NONE',  ( 26.79999999999997939, 21.99999999999996092, 15.87499999999997868 ) ) ;
#1053 = DIRECTION ( 'NONE',  ( -1.000000000000000000, -0.000000000000000000, -0.000000000000000000 ) ) ;
#1054 = LINE ( 'NONE', #293, #961 ) ;
#1055 = VECTOR ( 'NONE', #226, 1000.000000000000000 ) ;
#1056 = EDGE_CURVE ( 'NONE', #1391, #1105, #483, .T. ) ;
#1057 = ORIENTED_EDGE ( 'NONE', *, *, #697, .T. ) ;
#1058 = VECTOR ( 'NONE', #28, 1000.000000000000000 ) ;
#1059 = ORIENTED_EDGE ( 'NONE', *, *, #575, .T. ) ;
#1060 = VERTEX_POINT ( 'NONE', #477 ) ;
#1061 = VECTOR ( 'NONE', #633, 1000.000000000000000 ) ;
#1062 = LINE ( 'NONE', #644, #1108 ) ;
#1063 = DIRECTION ( 'NONE',  ( 0.000000000000000000, -0.000000000000000000, -1.000000000000000000 ) ) ;
#1064 = VECTOR ( 'NONE', #261, 1000.000000000000000 ) ;
#1065 = DIRECTION ( 'NONE',  ( 0.000000000000000000, 0.000000000000000000, -1.000000000000000000 ) ) ;
#1066 = EDGE_LOOP ( 'NONE', ( #1027, #918, #687, #1022 ) ) ;
#1067 = VERTEX_POINT ( 'NONE', #358 ) ;
#1068 = EDGE_LOOP ( 'NONE', ( #1002, #1377, #1004, #1203 ) ) ;
#1069 = DIRECTION ( 'NONE',  ( -0.000000000000000000, 1.000000000000000000, -0.000000000000000000 ) ) ;
#1070 = DIRECTION ( 'NONE',  ( 1.000000000000000000, 0.000000000000000000, -0.000000000000000000 ) ) ;
#1071 = VECTOR ( 'NONE', #1397, 1000.000000000000000 ) ;
#1072 = LINE ( 'NONE', #107, #891 ) ;
#1073 = EDGE_CURVE ( 'NONE', #443, #810, #1346, .T. ) ;
#1074 = ORIENTED_EDGE ( 'NONE', *, *, #1029, .F. ) ;
#1075 = DIRECTION ( 'NONE',  ( -4.731064025391309198E-16, 1.000000000000000000, 0.000000000000000000 ) ) ;
#1076 = ORIENTED_EDGE ( 'NONE', *, *, #593, .T. ) ;
#1077 = VERTEX_POINT ( 'NONE', #156 ) ;
#1078 = EDGE_CURVE ( 'NONE', #194, #249, #993, .T. ) ;
#1079 = EDGE_CURVE ( 'NONE', #737, #1352, #41, .T. ) ;
#1080 = DIRECTION ( 'NONE',  ( -0.000000000000000000, 1.000000000000000000, 0.000000000000000000 ) ) ;
#1081 = CARTESIAN_POINT ( 'NONE',  ( -21.99999999999981171, 26.80000000000022808, 15.87499999999997868 ) ) ;
#1082 = DIRECTION ( 'NONE',  ( -0.000000000000000000, -0.000000000000000000, -1.000000000000000000 ) ) ;
#1083 = EDGE_CURVE ( 'NONE', #985, #360, #1241, .T. ) ;
#1084 = CARTESIAN_POINT ( 'NONE',  ( 21.99999999999980460, -21.99999999999992539, 14.87499999999996803 ) ) ;
#1085 = EDGE_CURVE ( 'NONE', #282, #418, #898, .T. ) ;
#1086 = VECTOR ( 'NONE', #209, 1000.000000000000000 ) ;
#1087 = VERTEX_POINT ( 'NONE', #267 ) ;
#1088 = ADVANCED_FACE ( 'NONE', ( #53 ), #47, .F. ) ;
#1089 = DIRECTION ( 'NONE',  ( 1.000000000000000000, 0.000000000000000000, -0.000000000000000000 ) ) ;
#1090 = CARTESIAN_POINT ( 'NONE',  ( -21.99999999999978328, -26.00000000000016342, 15.87499999999997868 ) ) ;
#1091 = AXIS2_PLACEMENT_3D ( 'NONE', #1104, #36, #896 ) ;
#1092 = CARTESIAN_POINT ( 'NONE',  ( -21.99999999999978684, 26.00000000000017764, 15.87499999999997868 ) ) ;
#1093 = LINE ( 'NONE', #236, #499 ) ;
#1094 = VERTEX_POINT ( 'NONE', #250 ) ;
#1095 = DIRECTION ( 'NONE',  ( -3.280800900192554359E-16, -0.000000000000000000, -1.000000000000000000 ) ) ;
#1096 = CARTESIAN_POINT ( 'NONE',  ( 21.99999999999984013, 26.00000000000014211, 15.87499999999997868 ) ) ;
#1097 = VECTOR ( 'NONE', #603, 1000.000000000000000 ) ;
#1098 = FACE_OUTER_BOUND ( 'NONE', #392, .T. ) ;
#1099 = LINE ( 'NONE', #817, #1064 ) ;
#1100 = DIRECTION ( 'NONE',  ( 0.000000000000000000, 0.000000000000000000, 1.000000000000000000 ) ) ;
#1101 = EDGE_CURVE ( 'NONE', #1402, #1060, #832, .T. ) ;
#1102 = CARTESIAN_POINT ( 'NONE',  ( -21.99999999999978328, 21.99999999999995026, 15.87499999999997868 ) ) ;
#1103 = DIRECTION ( 'NONE',  ( -0.000000000000000000, -0.000000000000000000, -1.000000000000000000 ) ) ;
#1104 = CARTESIAN_POINT ( 'NONE',  ( -8.499999999999996447, -26.80000000000010019, 15.87499999999997158 ) ) ;
#1105 = VERTEX_POINT ( 'NONE', #814 ) ;
#1106 = VECTOR ( 'NONE', #1228, 1000.000000000000000 ) ;
#1107 = LINE ( 'NONE', #441, #604 ) ;
#1108 = VECTOR ( 'NONE', #1080, 1000.000000000000000 ) ;
#1109 = DIRECTION ( 'NONE',  ( -1.000000000000000000, 0.000000000000000000, 0.000000000000000000 ) ) ;
#1110 = VECTOR ( 'NONE', #1260, 1000.000000000000000 ) ;
#1111 = ORIENTED_EDGE ( 'NONE', *, *, #600, .F. ) ;
#1112 = DIRECTION ( 'NONE',  ( 1.000000000000000000, 0.000000000000000000, 0.000000000000000000 ) ) ;
#1113 = DIRECTION ( 'NONE',  ( -1.000000000000000000, 2.255140518770030661E-14, 0.000000000000000000 ) ) ;
#1114 = EDGE_CURVE ( 'NONE', #1008, #435, #579, .T. ) ;
#1115 = DIRECTION ( 'NONE',  ( -0.000000000000000000, -0.000000000000000000, -1.000000000000000000 ) ) ;
#1116 = ORIENTED_EDGE ( 'NONE', *, *, #1331, .T. ) ;
#1117 = EDGE_CURVE ( 'NONE', #1287, #1247, #666, .T. ) ;
#1118 = APPLICATION_CONTEXT ( 'automotive_design' ) ;
#1119 = DIRECTION ( 'NONE',  ( -0.000000000000000000, -1.000000000000000000, -0.000000000000000000 ) ) ;
#1120 = LINE ( 'NONE', #1019, #29 ) ;
#1121 = LINE ( 'NONE', #1020, #766 ) ;
#1122 = UNCERTAINTY_MEASURE_WITH_UNIT (LENGTH_MEASURE( 1.000000000000000082E-05 ), #369, 'distance_accuracy_value', 'NONE');
#1123 = CARTESIAN_POINT ( 'NONE',  ( 21.99999999999990408, -21.99999999999999645, 15.87499999999997868 ) ) ;
#1124 = ORIENTED_EDGE ( 'NONE', *, *, #740, .T. ) ;
#1125 = ORIENTED_EDGE ( 'NONE', *, *, #161, .T. ) ;
#1126 = VECTOR ( 'NONE', #1380, 1000.000000000000000 ) ;
#1127 = ORIENTED_EDGE ( 'NONE', *, *, #183, .T. ) ;
#1128 = CARTESIAN_POINT ( 'NONE',  ( 21.99999999999984013, 26.80000000000014282, 15.87499999999997868 ) ) ;
#1129 = VECTOR ( 'NONE', #1188, 1000.000000000000000 ) ;
#1130 = CARTESIAN_POINT ( 'NONE',  ( -26.00000000000002132, -21.99999999999992539, 15.87499999999997868 ) ) ;
#1131 = DIRECTION ( 'NONE',  ( 1.000000000000000000, 0.000000000000000000, -3.280800900192554359E-16 ) ) ;
#1132 = VECTOR ( 'NONE', #858, 1000.000000000000000 ) ;
#1133 = CARTESIAN_POINT ( 'NONE',  ( 26.80000000000008242, -21.99999999999992539, 14.87499999999996803 ) ) ;
#1134 = ORIENTED_EDGE ( 'NONE', *, *, #495, .T. ) ;
#1135 = ORIENTED_EDGE ( 'NONE', *, *, #1056, .T. ) ;
#1136 = VECTOR ( 'NONE', #54, 1000.000000000000000 ) ;
#1137 =( LENGTH_UNIT ( ) NAMED_UNIT ( * ) SI_UNIT ( .MILLI., .METRE. ) );
#1138 = DIRECTION ( 'NONE',  ( -0.000000000000000000, -0.000000000000000000, -1.000000000000000000 ) ) ;
#1139 = CARTESIAN_POINT ( 'NONE',  ( -21.99999999999978328, -26.80000000000013571, 14.87499999999996803 ) ) ;
#1140 = CARTESIAN_POINT ( 'NONE',  ( -26.79999999999999716, -21.99999999999992539, 14.87499999999996803 ) ) ;
#1141 = CARTESIAN_POINT ( 'NONE',  ( 21.99999999999984013, 26.80000000000012150, 15.87499999999997868 ) ) ;
#1142 = ORIENTED_EDGE ( 'NONE', *, *, #778, .F. ) ;
#1143 = ORIENTED_EDGE ( 'NONE', *, *, #570, .T. ) ;
#1144 = AXIS2_PLACEMENT_3D ( 'NONE', #82, #508, #854 ) ;
#1145 = DIRECTION ( 'NONE',  ( 1.000000000000000000, 0.000000000000000000, 0.000000000000000000 ) ) ;
#1146 = ADVANCED_FACE ( 'NONE', ( #164 ), #1337, .F. ) ;
#1147 = DIRECTION ( 'NONE',  ( -0.000000000000000000, -0.000000000000000000, -1.000000000000000000 ) ) ;
#1148 = EDGE_CURVE ( 'NONE', #405, #1149, #414, .T. ) ;
#1149 = VERTEX_POINT ( 'NONE', #734 ) ;
#1150 = ORIENTED_EDGE ( 'NONE', *, *, #675, .F. ) ;
#1151 = CARTESIAN_POINT ( 'NONE',  ( -21.99999999999978328, -30.00000000000019185, 15.87499999999997868 ) ) ;
#1152 = CARTESIAN_POINT ( 'NONE',  ( 26.80000000000000426, 21.99999999999996092, 15.87499999999997868 ) ) ;
#1153 = DIRECTION ( 'NONE',  ( 1.000000000000000000, 0.000000000000000000, 0.000000000000000000 ) ) ;
#1154 = ORIENTED_EDGE ( 'NONE', *, *, #802, .T. ) ;
#1155 = ORIENTED_EDGE ( 'NONE', *, *, #543, .F. ) ;
#1156 = AXIS2_PLACEMENT_3D ( 'NONE', #1084, #115, #109 ) ;
#1157 = CARTESIAN_POINT ( 'NONE',  ( 21.99999999999984013, 21.99999999999996447, 6.374999999999976019 ) ) ;
#1158 = DIRECTION ( 'NONE',  ( -1.000000000000000000, 0.000000000000000000, -0.000000000000000000 ) ) ;
#1159 = VERTEX_POINT ( 'NONE', #844 ) ;
#1160 = FACE_OUTER_BOUND ( 'NONE', #221, .T. ) ;
#1161 = EDGE_CURVE ( 'NONE', #813, #865, #192, .T. ) ;
#1162 = EDGE_LOOP ( 'NONE', ( #1296, #916, #92, #747 ) ) ;
#1163 = ORIENTED_EDGE ( 'NONE', *, *, #1282, .T. ) ;
#1164 = DIRECTION ( 'NONE',  ( -3.280800900192554359E-16, -0.000000000000000000, -1.000000000000000000 ) ) ;
#1165 = CARTESIAN_POINT ( 'NONE',  ( 26.80000000000008242, -21.99999999999992539, 15.87499999999997868 ) ) ;
#1166 = EDGE_CURVE ( 'NONE', #941, #473, #1201, .T. ) ;
#1167 = CARTESIAN_POINT ( 'NONE',  ( -21.99999999999981171, 26.80000000000017479, 6.374999999999976019 ) ) ;
#1168 = EDGE_LOOP ( 'NONE', ( #118, #214, #1305, #984, #1030 ) ) ;
#1169 = ORIENTED_EDGE ( 'NONE', *, *, #1036, .T. ) ;
#1170 = ORIENTED_EDGE ( 'NONE', *, *, #1078, .F. ) ;
#1171 = CARTESIAN_POINT ( 'NONE',  ( 21.99999999999984013, 26.80000000000012150, 6.374999999999976019 ) ) ;
#1172 = CARTESIAN_POINT ( 'NONE',  ( 21.99999999999984013, 26.80000000000012150, 6.374999999999976019 ) ) ;
#1173 = DIRECTION ( 'NONE',  ( -0.000000000000000000, 1.000000000000000000, -0.000000000000000000 ) ) ;
#1174 = STYLED_ITEM ( 'NONE', ( #1356 ), #1034 ) ;
#1175 = ORIENTED_EDGE ( 'NONE', *, *, #849, .F. ) ;
#1176 = VERTEX_POINT ( 'NONE', #1172 ) ;
#1177 = ORIENTED_EDGE ( 'NONE', *, *, #833, .T. ) ;
#1178 = ORIENTED_EDGE ( 'NONE', *, *, #824, .F. ) ;
#1179 = AXIS2_PLACEMENT_3D ( 'NONE', #242, #676, #1113 ) ;
#1180 = CARTESIAN_POINT ( 'NONE',  ( 22.50000000000000711, -26.77388730491218993, 14.87499999999996803 ) ) ;
#1181 = CARTESIAN_POINT ( 'NONE',  ( -20.00000000000000000, 26.00000000000017764, 15.87499999999997868 ) ) ;
#1182 = AXIS2_PLACEMENT_3D ( 'NONE', #1123, #793, #1246 ) ;
#1183 = PLANE ( 'NONE',  #530 ) ;
#1184 = LINE ( 'NONE', #228, #609 ) ;
#1185 = VERTEX_POINT ( 'NONE', #1048 ) ;
#1186 = ORIENTED_EDGE ( 'NONE', *, *, #99, .T. ) ;
#1187 = LINE ( 'NONE', #966, #432 ) ;
#1188 = DIRECTION ( 'NONE',  ( 0.000000000000000000, 0.000000000000000000, -1.000000000000000000 ) ) ;
#1189 = EDGE_CURVE ( 'NONE', #302, #125, #852, .T. ) ;
#1190 = VECTOR ( 'NONE', #1115, 1000.000000000000000 ) ;
#1191 = DIRECTION ( 'NONE',  ( -0.000000000000000000, -0.000000000000000000, -1.000000000000000000 ) ) ;
#1192 = EDGE_CURVE ( 'NONE', #272, #897, #615, .T. ) ;
#1193 = CARTESIAN_POINT ( 'NONE',  ( 21.99999999999984013, 26.00000000000014211, 15.87499999999997868 ) ) ;
#1194 = EDGE_CURVE ( 'NONE', #897, #1094, #856, .T. ) ;
#1195 = VERTEX_POINT ( 'NONE', #1389 ) ;
#1196 = EDGE_LOOP ( 'NONE', ( #541, #480, #1214, #45 ) ) ;
#1197 = CARTESIAN_POINT ( 'NONE',  ( 26.00000000000001776, 21.99999999999996447, 15.87499999999997868 ) ) ;
#1198 = CYLINDRICAL_SURFACE ( 'NONE', #134, 4.000000000000256684 ) ;
#1199 = LINE ( 'NONE', #131, #1055 ) ;
#1200 = APPLICATION_CONTEXT ( 'automotive_design' ) ;
#1201 = CIRCLE ( 'NONE', #624, 4.000000000000176748 ) ;
#1202 = CARTESIAN_POINT ( 'NONE',  ( -21.99999999999978684, 21.99999999999992184, 15.87499999999997868 ) ) ;
#1203 = ORIENTED_EDGE ( 'NONE', *, *, #594, .F. ) ;
#1204 = DIRECTION ( 'NONE',  ( -7.589415207398545238E-15, -1.000000000000000000, 0.000000000000000000 ) ) ;
#1205 = VECTOR ( 'NONE', #711, 1000.000000000000000 ) ;
#1206 = CARTESIAN_POINT ( 'NONE',  ( 22.50000000000000711, -26.80000000000010019, 14.87499999999996803 ) ) ;
#1207 = DIRECTION ( 'NONE',  ( -0.000000000000000000, -0.000000000000000000, -1.000000000000000000 ) ) ;
#1208 = ORIENTED_EDGE ( 'NONE', *, *, #181, .T. ) ;
#1209 = EDGE_CURVE ( 'NONE', #846, #282, #1031, .T. ) ;
#1210 = PLANE ( 'NONE',  #1242 ) ;
#1211 = CARTESIAN_POINT ( 'NONE',  ( 21.99999999999984723, -26.80000000000020677, 15.87499999999997868 ) ) ;
#1212 = ADVANCED_FACE ( 'NONE', ( #88 ), #950, .F. ) ;
#1213 = CARTESIAN_POINT ( 'NONE',  ( 8.500000000000000000, -26.00000000000015277, 2.499999999999998224 ) ) ;
#1214 = ORIENTED_EDGE ( 'NONE', *, *, #1189, .F. ) ;
#1215 = FACE_OUTER_BOUND ( 'NONE', #503, .T. ) ;
#1216 = DIRECTION ( 'NONE',  ( 1.000000000000000000, 0.000000000000000000, 0.000000000000000000 ) ) ;
#1217 = PLANE ( 'NONE',  #1179 ) ;
#1218 = ORIENTED_EDGE ( 'NONE', *, *, #853, .F. ) ;
#1219 = AXIS2_PLACEMENT_3D ( 'NONE', #1102, #343, #1316 ) ;
#1220 = ADVANCED_FACE ( 'NONE', ( #1275 ), #634, .F. ) ;
#1221 = DIRECTION ( 'NONE',  ( -1.000000000000000000, 1.734723475976946920E-15, 0.000000000000000000 ) ) ;
#1222 = FACE_OUTER_BOUND ( 'NONE', #410, .T. ) ;
#1223 = AXIS2_PLACEMENT_3D ( 'NONE', #757, #650, #1089 ) ;
#1224 = DIRECTION ( 'NONE',  ( -1.000000000000000000, 0.000000000000000000, 0.000000000000000000 ) ) ;
#1225 = EDGE_LOOP ( 'NONE', ( #565, #95, #550, #762 ) ) ;
#1226 = EDGE_CURVE ( 'NONE', #188, #1067, #943, .T. ) ;
#1227 = EDGE_CURVE ( 'NONE', #91, #819, #97, .T. ) ;
#1228 = DIRECTION ( 'NONE',  ( 1.000000000000000000, -0.000000000000000000, -0.000000000000000000 ) ) ;
#1229 = EDGE_CURVE ( 'NONE', #613, #584, #292, .T. ) ;
#1230 = DIRECTION ( 'NONE',  ( 0.000000000000000000, 0.000000000000000000, 1.000000000000000000 ) ) ;
#1231 = CARTESIAN_POINT ( 'NONE',  ( 21.99999999999984013, 26.80000000000014282, 14.87499999999996803 ) ) ;
#1232 = ORIENTED_EDGE ( 'NONE', *, *, #408, .T. ) ;
#1233 = AXIS2_PLACEMENT_3D ( 'NONE', #193, #952, #1153 ) ;
#1234 = EDGE_LOOP ( 'NONE', ( #598, #1394, #656, #1163 ) ) ;
#1235 =( NAMED_UNIT ( * ) PLANE_ANGLE_UNIT ( ) SI_UNIT ( $, .RADIAN. ) );
#1236 = LINE ( 'NONE', #171, #999 ) ;
#1237 = DIRECTION ( 'NONE',  ( -1.000000000000000000, 0.000000000000000000, 0.000000000000000000 ) ) ;
#1238 = CARTESIAN_POINT ( 'NONE',  ( 21.99999999999984013, 26.00000000000014211, 15.87499999999997868 ) ) ;
#1239 = ORIENTED_EDGE ( 'NONE', *, *, #204, .F. ) ;
#1240 = AXIS2_PLACEMENT_3D ( 'NONE', #912, #699, #708 ) ;
#1241 = LINE ( 'NONE', #586, #971 ) ;
#1242 = AXIS2_PLACEMENT_3D ( 'NONE', #113, #1100, #326 ) ;
#1243 = DIRECTION ( 'NONE',  ( -1.000000000000000000, 1.734723475976970980E-15, 0.000000000000000000 ) ) ;
#1244 = PLANE ( 'NONE',  #789 ) ;
#1245 = CIRCLE ( 'NONE', #1156, 4.800000000000276046 ) ;
#1246 = DIRECTION ( 'NONE',  ( -1.000000000000000000, 0.000000000000000000, 0.000000000000000000 ) ) ;
#1247 = VERTEX_POINT ( 'NONE', #1396 ) ;
#1248 = ORIENTED_EDGE ( 'NONE', *, *, #1209, .T. ) ;
#1249 = CIRCLE ( 'NONE', #629, 4.000000000000256684 ) ;
#1250 = EDGE_CURVE ( 'NONE', #257, #1393, #299, .T. ) ;
#1251 = PRODUCT_CONTEXT ( 'NONE', #1200, 'mechanical' ) ;
#1252 = ORIENTED_EDGE ( 'NONE', *, *, #1209, .F. ) ;
#1253 = DIRECTION ( 'NONE',  ( 0.000000000000000000, 0.000000000000000000, 1.000000000000000000 ) ) ;
#1254 = LINE ( 'NONE', #148, #672 ) ;
#1255 = EDGE_CURVE ( 'NONE', #435, #110, #927, .T. ) ;
#1256 = DIRECTION ( 'NONE',  ( 1.000000000000000000, 0.000000000000000000, 0.000000000000000000 ) ) ;
#1257 = DIRECTION ( 'NONE',  ( -1.577021341797099039E-16, -1.000000000000000000, -0.000000000000000000 ) ) ;
#1258 = CIRCLE ( 'NONE', #639, 8.000000000000270006 ) ;
#1259 = CARTESIAN_POINT ( 'NONE',  ( 26.80000000000005400, -21.99999999999992539, 6.374999999999976019 ) ) ;
#1260 = DIRECTION ( 'NONE',  ( -0.000000000000000000, -0.000000000000000000, -1.000000000000000000 ) ) ;
#1261 = VERTEX_POINT ( 'NONE', #822 ) ;
#1262 = DIRECTION ( 'NONE',  ( 0.000000000000000000, 0.000000000000000000, 1.000000000000000000 ) ) ;
#1263 = EDGE_CURVE ( 'NONE', #810, #1087, #938, .T. ) ;
#1264 = PLANE ( 'NONE',  #572 ) ;
#1265 = ORIENTED_EDGE ( 'NONE', *, *, #679, .T. ) ;
#1266 = DIRECTION ( 'NONE',  ( -1.734723475976970980E-15, -1.000000000000000000, 0.000000000000000000 ) ) ;
#1267 = CIRCLE ( 'NONE', #744, 4.000000000000103917 ) ;
#1268 = ORIENTED_EDGE ( 'NONE', *, *, #894, .T. ) ;
#1269 = LINE ( 'NONE', #1140, #72 ) ;
#1270 = CARTESIAN_POINT ( 'NONE',  ( 21.99999999999984013, 21.99999999999996447, 6.374999999999976019 ) ) ;
#1271 = CARTESIAN_POINT ( 'NONE',  ( 26.80000000000005400, -21.99999999999992539, 6.374999999999976019 ) ) ;
#1272 = PLANE ( 'NONE',  #838 ) ;
#1273 = ORIENTED_EDGE ( 'NONE', *, *, #1371, .F. ) ;
#1274 = LINE ( 'NONE', #61, #458 ) ;
#1275 = FACE_OUTER_BOUND ( 'NONE', #262, .T. ) ;
#1276 = LINE ( 'NONE', #1044, #332 ) ;
#1277 = ORIENTED_EDGE ( 'NONE', *, *, #641, .T. ) ;
#1278 = EDGE_LOOP ( 'NONE', ( #180, #715, #749, #402 ) ) ;
#1279 = ORIENTED_EDGE ( 'NONE', *, *, #408, .F. ) ;
#1280 = DIRECTION ( 'NONE',  ( 1.000000000000000000, -2.255140518770030661E-14, -0.000000000000000000 ) ) ;
#1281 = DIRECTION ( 'NONE',  ( -1.000000000000000000, 1.734723475976970980E-15, 0.000000000000000000 ) ) ;
#1282 = EDGE_CURVE ( 'NONE', #863, #322, #284, .T. ) ;
#1283 = CARTESIAN_POINT ( 'NONE',  ( -20.00000000000000000, 26.00000000000017764, 15.87499999999997868 ) ) ;
#1284 = LINE ( 'NONE', #319, #1385 ) ;
#1285 = EDGE_CURVE ( 'NONE', #1087, #1176, #345, .T. ) ;
#1286 = ORIENTED_EDGE ( 'NONE', *, *, #1351, .F. ) ;
#1287 = VERTEX_POINT ( 'NONE', #185 ) ;
#1288 = AXIS2_PLACEMENT_3D ( 'NONE', #877, #654, #442 ) ;
#1289 = ADVANCED_FACE ( 'NONE', ( #837 ), #238, .F. ) ;
#1290 = EDGE_CURVE ( 'NONE', #188, #295, #662, .T. ) ;
#1291 = CARTESIAN_POINT ( 'NONE',  ( -26.80000000000006111, 21.99999999999969091, 14.87499999999996803 ) ) ;
#1292 = PLANE ( 'NONE',  #606 ) ;
#1293 = VECTOR ( 'NONE', #874, 1000.000000000000000 ) ;
#1294 = ADVANCED_FACE ( 'NONE', ( #216 ), #1292, .F. ) ;
#1295 = CARTESIAN_POINT ( 'NONE',  ( -21.99999999999978328, -21.99999999999992539, 15.87499999999997868 ) ) ;
#1296 = ORIENTED_EDGE ( 'NONE', *, *, #469, .T. ) ;
#1297 = CARTESIAN_POINT ( 'NONE',  ( -20.00000000000000000, 26.80000000000017479, 15.87499999999997868 ) ) ;
#1298 = ORIENTED_EDGE ( 'NONE', *, *, #37, .T. ) ;
#1299 = ORIENTED_EDGE ( 'NONE', *, *, #138, .T. ) ;
#1300 = CARTESIAN_POINT ( 'NONE',  ( 21.99999999999984013, 26.80000000000014282, 15.87499999999997868 ) ) ;
#1301 = CARTESIAN_POINT ( 'NONE',  ( 20.00000000000000000, 26.80000000000012506, 15.87499999999997868 ) ) ;
#1302 = FACE_OUTER_BOUND ( 'NONE', #15, .T. ) ;
#1303 = CARTESIAN_POINT ( 'NONE',  ( -21.99999999999978328, -26.80000000000013571, 15.87499999999997868 ) ) ;
#1304 = ORIENTED_EDGE ( 'NONE', *, *, #679, .F. ) ;
#1305 = ORIENTED_EDGE ( 'NONE', *, *, #1038, .F. ) ;
#1306 = DIRECTION ( 'NONE',  ( 1.000000000000000000, -3.154042683594220758E-16, 0.000000000000000000 ) ) ;
#1307 = FACE_OUTER_BOUND ( 'NONE', #1343, .T. ) ;
#1308 = PRODUCT_DEFINITION ( 'UNKNOWN', '', #175, #792 ) ;
#1309 = CIRCLE ( 'NONE', #1353, 8.000000000000284217 ) ;
#1310 = CARTESIAN_POINT ( 'NONE',  ( 8.500000000000000000, -26.80000000000010019, 5.300000000000002487 ) ) ;
#1311 = ORIENTED_EDGE ( 'NONE', *, *, #570, .F. ) ;
#1312 = AXIS2_PLACEMENT_3D ( 'NONE', #12, #439, #335 ) ;
#1313 = ADVANCED_FACE ( 'NONE', ( #130 ), #887, .F. ) ;
#1314 = CARTESIAN_POINT ( 'NONE',  ( 22.50000000000000355, -26.00000000000015277, 5.300000000000002487 ) ) ;
#1315 = VECTOR ( 'NONE', #365, 1000.000000000000000 ) ;
#1316 = DIRECTION ( 'NONE',  ( -1.000000000000000000, 0.000000000000000000, 0.000000000000000000 ) ) ;
#1317 = PLANE ( 'NONE',  #811 ) ;
#1318 = EDGE_LOOP ( 'NONE', ( #934, #73, #1, #117 ) ) ;
#1319 = LINE ( 'NONE', #751, #1058 ) ;
#1320 = CARTESIAN_POINT ( 'NONE',  ( -21.99999999999978328, -26.00000000000016342, 6.374999999999976019 ) ) ;
#1321 = CARTESIAN_POINT ( 'NONE',  ( 8.500000000000000000, -26.80000000000010019, 2.499999999999998224 ) ) ;
#1322 = ORIENTED_EDGE ( 'NONE', *, *, #177, .T. ) ;
#1323 = CARTESIAN_POINT ( 'NONE',  ( 0.000000000000000000, 0.000000000000000000, 0.000000000000000000 ) ) ;
#1324 =( NAMED_UNIT ( * ) SI_UNIT ( $, .STERADIAN. ) SOLID_ANGLE_UNIT ( ) );
#1325 = CARTESIAN_POINT ( 'NONE',  ( -21.99999999999981171, 26.80000000000022808, 15.87499999999997868 ) ) ;
#1326 = ADVANCED_FACE ( 'NONE', ( #1215 ), #764, .F. ) ;
#1327 = ORIENTED_EDGE ( 'NONE', *, *, #616, .T. ) ;
#1328 = ADVANCED_FACE ( 'NONE', ( #645 ), #1210, .F. ) ;
#1329 = AXIS2_PLACEMENT_3D ( 'NONE', #1081, #758, #1204 ) ;
#1330 = ADVANCED_FACE ( 'NONE', ( #994 ), #230, .F. ) ;
#1331 = EDGE_CURVE ( 'NONE', #1149, #524, #452, .T. ) ;
#1332 = VECTOR ( 'NONE', #554, 1000.000000000000000 ) ;
#1333 = DIRECTION ( 'NONE',  ( 1.000000000000000000, 1.419319207617397591E-15, 0.000000000000000000 ) ) ;
#1334 = EDGE_LOOP ( 'NONE', ( #516, #642, #842, #780, #1057, #1076, #290, #1169, #769, #1059, #474, #724, #1382, #1154, #142, #104, #1127, #1125, #638, #328, #1040, #736, #16, #1124, #289, #273, #412, #686 ) ) ;
#1335 = VERTEX_POINT ( 'NONE', #770 ) ;
#1336 = APPLICATION_PROTOCOL_DEFINITION ( 'draft international standard', 'automotive_design', 1998, #1200 ) ;
#1337 = PLANE ( 'NONE',  #1240 ) ;
#1338 = CARTESIAN_POINT ( 'NONE',  ( 22.50000000000000355, -26.00000000000015277, 5.300000000000002487 ) ) ;
#1339 = CARTESIAN_POINT ( 'NONE',  ( -21.99999999999978328, -21.99999999999992539, 15.87499999999997868 ) ) ;
#1340 = DIRECTION ( 'NONE',  ( -0.000000000000000000, -0.000000000000000000, -1.000000000000000000 ) ) ;
#1341 = EDGE_LOOP ( 'NONE', ( #237, #1232, #1367, #111, #955, #1252, #794, #220, #956, #333, #509 ) ) ;
#1342 = CIRCLE ( 'NONE', #35, 4.000000000000103917 ) ;
#1343 = EDGE_LOOP ( 'NONE', ( #886, #493, #923, #590 ) ) ;
#1344 = SHAPE_DEFINITION_REPRESENTATION ( #890, #416 ) ;
#1345 = ORIENTED_EDGE ( 'NONE', *, *, #1073, .T. ) ;
#1346 = LINE ( 'NONE', #377, #689 ) ;
#1347 = DIRECTION ( 'NONE',  ( 2.050127744336231981E-15, -1.000000000000000000, 0.000000000000000000 ) ) ;
#1348 = FACE_OUTER_BOUND ( 'NONE', #795, .T. ) ;
#1349 = DIRECTION ( 'NONE',  ( -0.000000000000000000, -0.000000000000000000, -1.000000000000000000 ) ) ;
#1350 = ORIENTED_EDGE ( 'NONE', *, *, #288, .F. ) ;
#1351 = EDGE_CURVE ( 'NONE', #524, #1067, #1319, .T. ) ;
#1352 = VERTEX_POINT ( 'NONE', #1301 ) ;
#1353 = AXIS2_PLACEMENT_3D ( 'NONE', #990, #466, #34 ) ;
#1354 = ORIENTED_EDGE ( 'NONE', *, *, #660, .T. ) ;
#1355 = EDGE_CURVE ( 'NONE', #577, #1028, #353, .T. ) ;
#1356 = PRESENTATION_STYLE_ASSIGNMENT (( #147 ) ) ;
#1357 = CARTESIAN_POINT ( 'NONE',  ( 26.80000000000005400, -21.99999999999992539, 15.87499999999997868 ) ) ;
#1358 = LINE ( 'NONE', #491, #321 ) ;
#1359 = AXIS2_PLACEMENT_3D ( 'NONE', #199, #976, #626 ) ;
#1360 = CARTESIAN_POINT ( 'NONE',  ( 26.80000000000005400, -21.99999999999992539, 15.87499999999997868 ) ) ;
#1361 = ORIENTED_EDGE ( 'NONE', *, *, #820, .T. ) ;
#1362 = ORIENTED_EDGE ( 'NONE', *, *, #997, .T. ) ;
#1363 = VECTOR ( 'NONE', #172, 1000.000000000000000 ) ;
#1364 = CARTESIAN_POINT ( 'NONE',  ( 8.500000000000000000, -26.80000000000010019, 5.300000000000002487 ) ) ;
#1365 = CARTESIAN_POINT ( 'NONE',  ( -26.80000000000003624, 21.99999999999969091, 15.87499999999997868 ) ) ;
#1366 = PLANE ( 'NONE',  #1041 ) ;
#1367 = ORIENTED_EDGE ( 'NONE', *, *, #1148, .F. ) ;
#1368 = DIRECTION ( 'NONE',  ( -1.000000000000000000, 0.000000000000000000, 0.000000000000000000 ) ) ;
#1369 = AXIS2_PLACEMENT_3D ( 'NONE', #752, #776, #30 ) ;
#1370 = ORIENTED_EDGE ( 'NONE', *, *, #578, .F. ) ;
#1371 = EDGE_CURVE ( 'NONE', #1077, #322, #517, .T. ) ;
#1372 = DIRECTION ( 'NONE',  ( 0.000000000000000000, 0.000000000000000000, 1.000000000000000000 ) ) ;
#1373 = LINE ( 'NONE', #709, #862 ) ;
#1374 = DIRECTION ( 'NONE',  ( -0.000000000000000000, -0.000000000000000000, -1.000000000000000000 ) ) ;
#1375 = ORIENTED_EDGE ( 'NONE', *, *, #1036, .F. ) ;
#1376 = ADVANCED_FACE ( 'NONE', ( #106 ), #1198, .F. ) ;
#1377 = ORIENTED_EDGE ( 'NONE', *, *, #1010, .T. ) ;
#1378 = ORIENTED_EDGE ( 'NONE', *, *, #437, .F. ) ;
#1379 = VECTOR ( 'NONE', #527, 1000.000000000000000 ) ;
#1380 = DIRECTION ( 'NONE',  ( 0.000000000000000000, 1.000000000000000000, 0.000000000000000000 ) ) ;
#1381 = DIRECTION ( 'NONE',  ( -0.000000000000000000, -0.000000000000000000, -1.000000000000000000 ) ) ;
#1382 = ORIENTED_EDGE ( 'NONE', *, *, #22, .T. ) ;
#1383 = DIRECTION ( 'NONE',  ( 1.000000000000000000, 0.000000000000000000, -0.000000000000000000 ) ) ;
#1384 = VECTOR ( 'NONE', #379, 1000.000000000000000 ) ;
#1385 = VECTOR ( 'NONE', #232, 1000.000000000000000 ) ;
#1386 = ORIENTED_EDGE ( 'NONE', *, *, #495, .F. ) ;
#1387 = ORIENTED_EDGE ( 'NONE', *, *, #616, .F. ) ;
#1388 = LINE ( 'NONE', #87, #1039 ) ;
#1389 = CARTESIAN_POINT ( 'NONE',  ( 22.50000000000000355, -26.80000000000010019, 5.300000000000002487 ) ) ;
#1390 = DIRECTION ( 'NONE',  ( 7.589415207398545238E-15, 1.000000000000000000, 0.000000000000000000 ) ) ;
#1391 = VERTEX_POINT ( 'NONE', #224 ) ;
#1392 = ORIENTED_EDGE ( 'NONE', *, *, #983, .T. ) ;
#1393 = VERTEX_POINT ( 'NONE', #1090 ) ;
#1394 = ORIENTED_EDGE ( 'NONE', *, *, #1229, .F. ) ;
#1395 = FACE_OUTER_BOUND ( 'NONE', #850, .T. ) ;
#1396 = CARTESIAN_POINT ( 'NONE',  ( -30.00000000000005329, 21.99999999999992184, 15.87499999999997868 ) ) ;
#1397 = DIRECTION ( 'NONE',  ( 0.000000000000000000, 1.000000000000000000, 0.000000000000000000 ) ) ;
#1398 = ORIENTED_EDGE ( 'NONE', *, *, #718, .F. ) ;
#1399 = LINE ( 'NONE', #424, #720 ) ;
#1400 = ADVANCED_FACE ( 'NONE', ( #3 ), #552, .T. ) ;
#1401 = EDGE_CURVE ( 'NONE', #613, #813, #875, .T. ) ;
#1402 = VERTEX_POINT ( 'NONE', #126 ) ;
ENDSEC;
END-ISO-10303-21;
